<?xml version="1.0" encoding="utf-8"?>
<!-- Generator: Adobe Illustrator 19.0.0, SVG Export Plug-In . SVG Version: 6.00 Build 0)  -->
<svg version="1.1" id="Layer_1" xmlns="http://www.w3.org/2000/svg" xmlns:xlink="http://www.w3.org/1999/xlink" x="0px" y="0px"
	 viewBox="-229 31.4 152.9 731.6" style="enable-background:new -229 31.4 152.9 731.6;" xml:space="preserve">
<style type="text/css">
	.st0{display:none;}
</style>
<path d="M-216.7,513.7h14.7l-7.4-323.4L-216.7,513.7z M-206.7,14.6h1.2l15.6,665.8c0.7,25.6,1.7,42.4,2.8,50.5
	c1.2,7.7,2.4,11.6,3.8,11.6V763h-21.8v-20.5c3.1,0,5-3.9,5.8-11.6c0.8-8.1,1.2-20.5,1.2-37.3c0-17.9-1.1-71.3-3.3-160.4H-217
	l-1.6,72.1c-0.2,9.1-0.3,23.5-0.3,43.1c0.2,32.3,0.7,56.1,1.7,71.5c1,15.1,2.2,22.6,3.7,22.6V763H-229v-20.5
	c4.4,0,8.2-82.9,11.4-248.8L-206.7,14.6z"/>
<path d="M-162.7,390.9v352.2h8.2c3.6,0,6.4-15.4,8.3-46.1c1.9-30.7,2.9-75.5,2.9-134.2c0-54.5-1-96.8-3.1-126.8
	c-2.1-30-5.3-45.1-9.7-45.1L-162.7,390.9L-162.7,390.9z M-162.7,49.2v320.2h6.8c4.6,0,7.6-16.2,9.1-48.7
	c1.5-32.8,2.2-72.7,2.2-119.5c0-47.2-0.7-84.2-2-111.1c-1.3-27.3-3.9-40.9-7.9-40.9C-154.5,49.2-162.7,49.2-162.7,49.2z
	 M-149.8,31.4c4.5,0,8,17.5,10.4,52.4c2.4,34.6,3.6,76.8,3.6,126.8c0,48.9-1.5,88.2-4.5,117.9c-3,29.7-5.4,46.5-7.3,50.3
	c4.1,13.3,7.3,35.8,9.8,67.6c2.5,31.4,3.7,74.9,3.7,130.5c0,61.1-1.6,107.4-4.8,138.9c-3.2,31.4-6.6,47.2-10.5,47.2h-29.2v-20.4
	c3.2,0,5.3-11.9,6.3-35.6c1-23.8,1.5-61.3,1.5-112.7V200.1c0-51.4-0.5-88.9-1.5-112.7s-3.1-35.6-6.3-35.6V31.4H-149.8z"/>
<path d="M-111.6,385.6h9.6c4.8,0,8-15.4,9.6-46.1c1.6-31.1,2.4-68.8,2.4-113.2v-16.2c0-44.7-0.8-82.5-2.5-113.2
	c-1.6-30.7-4.9-46.1-9.9-46.1h-9.3v334.8H-111.6z M-96.5,31.4c5.8,0,9.9,18.5,12.2,55.6c2.3,37,3.4,77.6,3.4,121.6v23
	c0,49.3-1.6,90.5-4.7,123.7c-3.1,33.2-7,49.8-11.5,49.8h-4.9c3,33.9,5.2,56.4,6.5,67.6c1.3,10.8,3,21.1,5.1,30.9l6.4,176.6
	c1,26.2,2.2,43.1,3.4,50.8c1.3,7.7,2.7,11.5,4.5,11.5v20.4h-14.2l-13-357.9h-8.2v189.2c0,51.4,0.5,88.9,1.5,112.7s3.1,35.6,6.4,35.6
	v20.4h-23.7v-20.4c3.2,0,5.3-11.9,6.3-35.6c1-23.8,1.5-61.3,1.5-112.7V200.1c0-51.4-0.5-88.9-1.5-112.7s-3.1-35.6-6.3-35.6V31.4
	H-96.5z"/>
<path class="st0" d="M-90.4,546.5h14.7l-7.4-323.4L-90.4,546.5z M-80.4,47.4h1.2l15.7,665.8c0.7,25.6,1.7,42.4,2.8,50.5
	c1.2,7.7,2.4,11.6,3.8,11.6v20.5h-21.8v-20.5c3.1,0,5-3.9,5.8-11.6c0.8-8.1,1.2-20.5,1.2-37.3c0-17.9-1.1-71.3-3.3-160.4h-15.6
	l-1.6,72.1c-0.2,9.1-0.3,23.5-0.3,43.1c0.2,32.3,0.7,56.1,1.7,71.5c1,15.1,2.2,22.6,3.7,22.6v20.5h-15.4v-20.5
	c4.4,0,8.2-82.9,11.4-248.8L-80.4,47.4z"/>
<path class="st0" d="M-36.8,64.2c4,0,7.1,14.3,9.2,42.8c2.1,28.5,3.5,42.8,4.2,42.8c1.2,0,2.7-36.2,4.7-85.5h1l0.8,348.2h-0.8
	c-1.9-115.4-4.5-199.1-7.8-251.1c-3.3-52.3-6.7-78.5-10.3-78.5c-3.9,0-6.6,30.4-8.2,91.1c-1.6,60.4-2.4,147.8-2.4,262.1
	c0,134.8,1.1,225.1,3.4,270.7c2.3,45.6,5.2,68.4,8.8,68.4c4.6,0,8.3-24.7,11.2-74s4.8-105.5,5.6-168.6h1.1
	c-0.8,65.7-2.7,126.1-5.8,181.1c-3.1,54.7-7.3,82-12.6,82c-6,0-11.1-37.6-15.2-112.7c-4.1-75.5-6.2-160.5-6.2-255.1
	c0-97.3,2-182.1,6-254.6C-46.1,100.6-41.7,64.2-36.8,64.2z"/>
<path class="st0" d="M-1.3,546.5h14.7L6,223.1L-1.3,546.5z M8.7,47.4h1.2l15.7,665.8c0.7,25.6,1.7,42.4,2.8,50.5
	c1.2,7.7,2.4,11.6,3.8,11.6v20.5H10.4v-20.5c3.1,0,5-3.9,5.8-11.6c0.8-8.1,1.2-20.5,1.2-37.3c0-17.9-1.1-71.3-3.3-160.4H-1.5
	l-1.6,72.1c-0.2,9.1-0.3,23.5-0.3,43.1c0.2,32.3,0.7,56.1,1.7,71.5c1,15.1,2.2,22.6,3.7,22.6v20.5h-15.4v-20.5
	c4.4,0,8.2-82.9,11.4-248.8L8.7,47.4z"/>
<path class="st0" d="M53,83.6v690.7h6.1c7.4,0,12.1-31.8,14.3-95.4c2.1-63.6,3.2-138.5,3.2-224.8v-39.3c0-107.3-1.3-189.2-4-245.8
	c-2.7-56.9-7.2-85.4-13.8-85.4L53,83.6L53,83.6z M63.2,64.2c7.3,0,12.9,39,16.8,116.9c3.9,77.6,5.9,159.7,5.9,246.3v23
	c0,97.1-2.1,179.1-6.3,245.8c-4.2,66.4-9.2,99.6-14.9,99.6H36.9v-20.4c3.5,0,5.7-11.9,6.7-35.6c1-23.8,1.5-61.3,1.5-112.7V232.9
	c0-51.4-0.5-88.9-1.5-112.7s-3.2-35.6-6.7-35.6V64.2H63.2z"/>
<path class="st0" d="M101.2,546.5h14.7l-7.4-323.4L101.2,546.5z M111.2,47.4h1.2l15.7,665.8c0.7,25.6,1.7,42.4,2.8,50.5
	c1.2,7.7,2.4,11.6,3.8,11.6v20.5h-21.8v-20.5c3.1,0,5-3.9,5.8-11.6c0.8-8.1,1.2-20.5,1.2-37.3c0-17.9-1.1-71.3-3.3-160.4H101
	l-1.6,72.1c-0.2,9.1-0.3,23.5-0.3,43.1c0.2,32.3,0.7,56.1,1.7,71.5c1,15.1,2.2,22.6,3.7,22.6v20.5H89v-20.5
	c4.4,0,8.2-82.9,11.4-248.8L111.2,47.4z"/>
<path class="st0" d="M155.2,423.7v352.2h8.2c3.6,0,6.4-15.4,8.3-46.1c1.9-30.7,2.9-75.5,2.9-134.2c0-54.5-1-96.8-3.1-126.8
	s-5.3-45.1-9.7-45.1L155.2,423.7L155.2,423.7z M155.2,82v320.2h6.8c4.6,0,7.6-16.2,9.1-48.7c1.5-32.8,2.2-72.7,2.2-119.5
	c0-47.2-0.7-84.2-2-111.1C170,95.6,167.4,82,163.4,82C163.4,82,155.2,82,155.2,82z M168.2,64.2c4.5,0,8,17.5,10.4,52.4
	c2.4,34.6,3.6,76.9,3.6,126.8c0,48.9-1.5,88.2-4.5,117.9c-3,29.7-5.4,46.5-7.3,50.3c4.1,13.3,7.3,35.8,9.8,67.6
	c2.5,31.4,3.7,74.9,3.7,130.5c0,61.1-1.6,107.4-4.8,138.9c-3.2,31.4-6.6,47.2-10.5,47.2h-29.3v-20.4c3.2,0,5.3-11.9,6.3-35.6
	c1-23.8,1.5-61.3,1.5-112.7V232.9c0-51.4-0.5-88.9-1.5-112.7s-3.1-35.6-6.3-35.6V64.2H168.2z"/>
<path class="st0" d="M206.4,418.4h9.6c4.8,0,8-15.4,9.6-46.1c1.6-31.1,2.4-68.8,2.4-113.2v-16.2c0-44.7-0.8-82.5-2.5-113.2
	c-1.6-30.7-4.9-46.1-9.9-46.1h-9.3L206.4,418.4L206.4,418.4z M221.4,64.2c5.8,0,9.9,18.5,12.2,55.6c2.3,37,3.4,77.6,3.4,121.6v23
	c0,49.3-1.6,90.5-4.7,123.7s-7,49.8-11.5,49.8H216c3,33.9,5.2,56.4,6.5,67.6c1.3,10.8,3,21.1,5.1,30.9L234,713
	c1,26.2,2.2,43.1,3.4,50.8c1.3,7.7,2.7,11.5,4.5,11.5v20.4h-14.2l-13-357.9h-8.2V627c0,51.4,0.5,88.9,1.5,112.7s3.1,35.6,6.4,35.6
	v20.4h-23.6v-20.4c3.2,0,5.3-11.9,6.3-35.6c1-23.8,1.5-61.3,1.5-112.7V232.9c0-51.4-0.5-88.9-1.5-112.7s-3.1-35.6-6.3-35.6V64.2
	H221.4z"/>
<path class="st0" d="M257.5,546.5h14.7l-7.4-323.4L257.5,546.5z M267.5,47.4h1.2l15.7,665.8c0.7,25.6,1.7,42.4,2.8,50.5
	c1.2,7.7,2.4,11.6,3.8,11.6v20.5h-21.8v-20.5c3.1,0,5-3.9,5.8-11.6c0.8-8.1,1.2-20.5,1.2-37.3c0-17.9-1.1-71.3-3.3-160.4h-15.6
	l-1.6,72.1c-0.2,9.1-0.3,23.5-0.3,43.1c0.2,32.3,0.7,56.1,1.7,71.5c1,15.1,2.2,22.6,3.7,22.6v20.5h-15.4v-20.5
	c4.4,0,8.2-82.9,11.4-248.8L267.5,47.4z"/>
</svg>
