<?xml version="1.0" encoding="utf-8"?>
<!-- Generator: Adobe Illustrator 19.0.0, SVG Export Plug-In . SVG Version: 6.00 Build 0)  -->
<svg preserveAspectRatio="none" version="1.1" id="Layer_1" xmlns="http://www.w3.org/2000/svg" xmlns:xlink="http://www.w3.org/1999/xlink" x="0px" y="0px"
	 viewBox="-74 31.4 463 731.6" style="enable-background:new -74 31.4 463 731.6;" xml:space="preserve">
<path d="M-59.5,513.7h17.3l-8.7-323.4L-59.5,513.7z M-47.7,14.6h1.4l18.4,665.8c0.8,25.6,2,42.4,3.3,50.5c1.4,7.7,2.9,11.6,4.4,11.6
	V763h-25.7v-20.5c3.6,0,5.9-3.9,6.8-11.6c0.9-8.1,1.4-20.5,1.4-37.3c0-17.9-1.3-71.3-3.9-160.4h-18.3l-1.9,72.1
	c-0.2,9.1-0.3,23.5-0.3,43.1c0.2,32.3,0.9,56.1,2.1,71.5c1.2,15.1,2.6,22.6,4.3,22.6V763h-18.2v-20.5c5.1,0,9.6-82.9,13.5-248.8
	L-47.7,14.6z"/>
<path d="M4.1,390.9v352.2h9.7c4.3,0,7.5-15.4,9.8-46.1c2.3-30.7,3.4-75.5,3.4-134.2c0-54.5-1.2-96.8-3.7-126.8
	c-2.4-30-6.3-45.1-11.4-45.1L4.1,390.9L4.1,390.9z M4.1,49.2v320.2h8c5.4,0,9-16.2,10.7-48.7c1.7-32.8,2.6-72.7,2.6-119.5
	c0-47.2-0.8-84.2-2.3-111.1c-1.5-27.3-4.6-40.9-9.3-40.9C13.8,49.2,4.1,49.2,4.1,49.2z M19.2,31.4c5.3,0,9.4,17.5,12.3,52.4
	c2.8,34.6,4.3,76.9,4.3,126.8c0,48.9-1.7,88.2-5.2,117.9c-3.5,29.7-6.4,46.5-8.6,50.3c4.8,13.3,8.6,35.8,11.5,67.6
	c2.9,31.4,4.4,74.9,4.4,130.5c0,61.1-1.9,107.4-5.6,138.9C28.6,747.2,24.5,763,20,763h-34.5v-20.4c3.8,0,6.3-11.9,7.5-35.6
	c1.1-23.9,1.7-61.4,1.7-112.8V200.1c0-51.4-0.6-88.9-1.8-112.7s-3.7-35.6-7.5-35.6V31.4H19.2z"/>
<path d="M64.2,385.6h11.3c5.6,0,9.4-15.4,11.3-46.1c1.9-31.1,2.8-68.8,2.8-113.2v-16.2c0-44.7-1-82.5-2.9-113.2
	c-1.9-30.8-5.8-46.1-11.6-46.1H64.2V385.6z M81.9,31.4c6.9,0,11.6,18.5,14.3,55.6c2.7,37,4,77.6,4,121.6v23
	c0,49.3-1.9,90.5-5.6,123.7s-8.2,49.8-13.6,49.8h-5.6c3.5,33.9,6.1,56.4,7.6,67.6c1.5,10.8,3.5,21.1,6,30.9l7.6,176.6
	c1.2,26.2,2.5,43.1,4,50.8s3.2,11.5,5.2,11.5v20.4H89.2L73.9,405h-9.7v189.2c0,51.4,0.6,88.9,1.8,112.7c1.2,23.8,3.7,35.6,7.5,35.6
	v20.4H45.7v-20.4c3.8,0,6.3-11.9,7.5-35.6c1.2-23.8,1.8-61.3,1.8-112.7V200.1c0-51.4-0.6-88.9-1.8-112.7s-3.7-35.6-7.5-35.6V31.4
	H81.9z"/>
<path d="M124.4,513.7h17.3L133,190.3L124.4,513.7z M136.1,14.6h1.4l18.4,665.8c0.8,25.6,2,42.4,3.3,50.5c1.4,7.7,2.9,11.6,4.4,11.6
	V763h-25.7v-20.5c3.6,0,5.9-3.9,6.8-11.6c0.9-8.1,1.4-20.5,1.4-37.3c0-17.9-1.3-71.3-3.9-160.4h-18.4l-1.9,72.1
	c-0.2,9.1-0.3,23.5-0.3,43.1c0.2,32.3,0.9,56.1,2.1,71.5c1.2,15.1,2.6,22.6,4.3,22.6V763h-18.1v-20.5c5.1,0,9.6-82.9,13.5-248.8
	L136.1,14.6z"/>
<path d="M187.4,31.4c4.8,0,8.4,14.3,10.9,42.8s4.1,42.8,4.9,42.8c1.4,0,3.2-36.2,5.6-85.5h1.2l0.9,348.2h-1
	c-2.2-115.4-5.3-199.1-9.2-251.1c-3.9-52.3-7.9-78.5-12.1-78.5c-4.6,0-7.8,30.4-9.7,91.1c-1.9,60.4-2.8,147.8-2.8,262.1
	c0,134.8,1.3,225.1,4,270.7s6.1,68.4,10.3,68.4c5.4,0,9.8-24.7,13.1-74c3.4-49.3,5.6-105.5,6.6-168.6h1.3
	c-0.9,65.7-3.2,126.1-6.8,181.1c-3.6,54.7-8.5,82-14.8,82c-7.1,0-13-37.6-17.9-112.7c-4.9-75.5-7.3-160.5-7.3-255.1
	c0-97.3,2.4-182.1,7.1-254.6C176.4,67.8,181.7,31.4,187.4,31.4z"/>
<path d="M229.2,513.7h17.3l-8.7-323.4L229.2,513.7z M241,14.6h1.4l18.4,665.8c0.8,25.6,2,42.4,3.3,50.5c1.4,7.7,2.9,11.6,4.4,11.6
	V763h-25.7v-20.5c3.6,0,5.9-3.9,6.8-11.6c0.9-8.1,1.4-20.5,1.4-37.3c0-17.9-1.3-71.3-3.9-160.4h-18.4l-1.9,72.1
	c-0.2,9.1-0.3,23.5-0.3,43.1c0.2,32.3,0.9,56.1,2.1,71.5c1.2,15.1,2.6,22.6,4.3,22.6V763h-18.1v-20.5c5.1,0,9.6-82.9,13.5-248.8
	L241,14.6z"/>
<path d="M293.1,50.8v690.7h7.1c8.7,0,14.3-31.8,16.8-95.4s3.8-138.5,3.8-224.8V382c0-107.3-1.6-189.2-4.7-245.8
	c-3.1-56.9-8.5-85.4-16.2-85.4L293.1,50.8L293.1,50.8z M305,31.4c8.6,0,15.2,39,19.8,116.9c4.6,77.6,6.9,159.7,6.9,246.3v23
	c0,97.1-2.5,179.1-7.5,245.8c-5,66.4-10.8,99.6-17.6,99.6h-32.5v-20.4c4.1,0,6.7-11.9,7.9-35.6c1.2-23.8,1.8-61.3,1.8-112.7V200.1
	c0-51.4-0.6-88.9-1.8-112.7c-1.2-23.8-3.8-35.6-7.9-35.6V31.4H305z"/>
<path d="M349.7,513.7h17.4l-8.7-323.4L349.7,513.7z M361.5,14.6h1.4l18.4,665.8c0.8,25.6,2,42.4,3.3,50.5c1.4,7.7,2.9,11.6,4.4,11.6
	V763h-25.7v-20.5c3.6,0,5.9-3.9,6.8-11.6c0.9-8.1,1.4-20.5,1.4-37.3c0-17.9-1.3-71.3-3.9-160.4h-18.4l-1.9,72.1
	c-0.2,9.1-0.3,23.5-0.3,43.1c0.2,32.3,0.9,56.1,2.1,71.5c1.2,15.1,2.6,22.6,4.3,22.6V763h-18.1v-20.5c5.1,0,9.6-82.9,13.5-248.8
	L361.5,14.6z"/>
</svg>
