<?xml version="1.0" encoding="utf-8"?>
<!-- Generator: Adobe Illustrator 19.0.0, SVG Export Plug-In . SVG Version: 6.00 Build 0)  -->
<svg version="1.1" id="Layer_1" xmlns="http://www.w3.org/2000/svg" xmlns:xlink="http://www.w3.org/1999/xlink" x="0px" y="0px"
	 viewBox="-119 31.4 373 731.6" style="enable-background:new -119 31.4 373 731.6;" xml:space="preserve">
<path d="M-103.3,513.7h18.9l-9.5-323.4L-103.3,513.7z M-90.5,14.6h1.5l20.1,665.8c0.9,25.6,2.1,42.4,3.6,50.5
	c1.5,7.7,3.1,11.6,4.8,11.6V763h-28v-20.5c4,0,6.4-3.9,7.4-11.6c1-8.1,1.5-20.5,1.5-37.3c0-17.9-1.5-71.3-4.2-160.4h-20l-2.1,72.1
	c-0.2,9.1-0.3,23.5-0.3,43.1c0.2,32.3,1,56.1,2.2,71.5c1.3,15.1,2.9,22.6,4.7,22.6V763H-119v-20.5c5.6,0,10.5-82.9,14.7-248.8
	L-90.5,14.6z"/>
<path d="M-34.1,390.9v352.2h10.6c4.7,0,8.2-15.4,10.7-46.1c2.5-30.7,3.7-75.5,3.7-134.2c0-54.5-1.3-96.8-4-126.8
	s-6.8-45.1-12.5-45.1L-34.1,390.9L-34.1,390.9z M-34.1,49.2v320.2h8.8c5.9,0,9.8-16.2,11.7-48.7c1.9-32.8,2.8-72.7,2.8-119.5
	c0-47.2-0.8-84.2-2.5-111.1c-1.7-27.3-5-40.9-10.1-40.9C-23.4,49.2-34.1,49.2-34.1,49.2z M-17.6,31.4c5.8,0,10.3,17.5,13.3,52.4
	c3.2,34.6,4.7,76.8,4.7,126.8c0,48.9-1.9,88.2-5.7,117.9c-3.8,29.7-6.9,46.5-9.4,50.3c5.2,13.3,9.4,35.8,12.6,67.6
	c3.2,31.4,4.7,74.9,4.7,130.5c0,61.1-2,107.4-6.1,138.9c-4,31.4-8.5,47.2-13.4,47.2h-37.5v-20.4c4.1,0,6.8-11.9,8.1-35.6
	c1.3-23.8,2-61.3,2-112.7V200.1c0-51.4-0.7-88.9-2-112.7s-4-35.6-8.1-35.6V31.4H-17.6z"/>
<path d="M31.4,385.6h12.3c6.1,0,10.2-15.4,12.3-46.1c2-31.1,3.1-68.8,3.1-113.2v-16.2c0-44.7-1.1-82.5-3.2-113.2
	c-2.1-30.7-6.3-46.1-12.6-46.1H31.4V385.6z M50.7,31.4c7.5,0,12.7,18.5,15.6,55.6c2.9,37,4.4,77.6,4.4,121.6v23
	c0,49.3-2,90.5-6.1,123.7c-4,33.2-8.9,49.8-14.8,49.8h-6.1c3.9,33.9,6.6,56.4,8.3,67.6c1.7,10.8,3.9,21.1,6.6,30.9L67,680.2
	c1.3,26.2,2.8,43.1,4.4,50.8s3.5,11.5,5.7,11.5v20.4H58.7L42,405H31.4v189.2c0,51.4,0.6,88.9,1.9,112.7s4,35.6,8.2,35.6v20.4H11.2
	v-20.4c4.1,0,6.8-11.9,8.1-35.6c1.3-23.8,2-61.3,2-112.7V200.1c0-51.4-0.7-88.9-2-112.7s-4-35.6-8.1-35.6V31.4H50.7z"/>
<path d="M96.9,513.7h18.9l-9.5-323.4L96.9,513.7z M109.7,14.6h1.5l20.1,665.8c0.9,25.6,2.1,42.4,3.6,50.5c1.5,7.7,3.1,11.6,4.8,11.6
	V763h-28v-20.5c4,0,6.4-3.9,7.4-11.6c1-8.1,1.5-20.5,1.5-37.3c0-17.9-1.5-71.3-4.2-160.4h-20l-2.1,72.1c-0.2,9.1-0.3,23.5-0.3,43.1
	c0.2,32.3,1,56.1,2.2,71.5c1.3,15.1,2.9,22.6,4.7,22.6V763H81.2v-20.5c5.6,0,10.5-82.9,14.7-248.8L109.7,14.6z"/>
<path d="M165.6,31.4c5.2,0,9.1,14.3,11.8,42.8c2.7,28.5,4.5,42.8,5.4,42.8c1.5,0,3.5-36.2,6.1-85.5h1.3l1,348.1H190
	c-2.4-115.3-5.8-199.1-10-251c-4.2-52.3-8.6-78.5-13.2-78.5c-5,0-8.5,30.4-10.6,91.1c-2,60.4-3.1,147.7-3.1,262.1
	c0,134.9,1.5,225,4.4,270.6c3,45.6,6.7,68.4,11.2,68.4c5.9,0,10.6-24.7,14.3-74c3.7-49.3,6.1-105.5,7.2-168.5h1.4
	c-1,65.7-3.5,126.1-7.4,181.1c-3.9,54.7-9.3,82-16.1,82c-7.7,0-14.2-37.5-19.5-112.7c-5.3-75.5-7.9-160.4-7.9-255
	c0-97.2,2.6-182.1,7.7-254.5C153.8,67.7,159.4,31.4,165.6,31.4z"/>
<path d="M211.1,513.7H230l-9.5-323.4L211.1,513.7z M223.9,14.6h1.5l20.1,665.8c0.9,25.6,2.1,42.4,3.6,50.5
	c1.5,7.7,3.1,11.6,4.8,11.6V763h-28v-20.5c4,0,6.4-3.9,7.4-11.6c1-8.1,1.5-20.5,1.5-37.3c0-17.9-1.5-71.3-4.2-160.4h-20l-2.1,72.1
	c-0.2,9.1-0.3,23.5-0.3,43.1c0.2,32.3,1,56.1,2.2,71.5c1.3,15.1,2.9,22.6,4.7,22.6V763h-19.7v-20.5c5.6,0,10.5-82.9,14.7-248.8
	L223.9,14.6z"/>
</svg>
