<?xml version="1.0" encoding="utf-8"?>
<!-- Generator: Adobe Illustrator 19.0.0, SVG Export Plug-In . SVG Version: 6.00 Build 0)  -->
<svg preserveAspectRatio="none" version="1.1" id="Layer_1" xmlns="http://www.w3.org/2000/svg" xmlns:xlink="http://www.w3.org/1999/xlink" x="0px" y="0px"
	 viewBox="-30 31.4 550 731.6" style="enable-background:new -30 31.4 550 731.6;" xml:space="preserve">
<path d="M-17.7,513.7H-3l-7.4-323.4L-17.7,513.7z M-7.7,14.6h1.2L9.1,680.4c0.7,25.6,1.7,42.4,2.8,50.5c1.2,7.7,2.4,11.6,3.8,11.6
	V763H-6.1v-20.5c3.1,0,5-3.9,5.8-11.6c0.8-8.1,1.2-20.5,1.2-37.3c0-17.9-1.1-71.3-3.3-160.4H-18l-1.6,72.1
	c-0.2,9.1-0.3,23.5-0.3,43.1c0.2,32.3,0.7,56.1,1.7,71.5c1,15.1,2.2,22.6,3.7,22.6V763H-30v-20.5c4.4,0,8.2-82.9,11.4-248.8
	L-7.7,14.6z"/>
<path d="M36.3,390.9v352.2h8.2c3.6,0,6.4-15.4,8.3-46.1c1.9-30.7,2.9-75.5,2.9-134.2c0-54.5-1-96.8-3.1-126.8s-5.3-45.1-9.7-45.1
	L36.3,390.9L36.3,390.9z M36.3,49.2v320.2h6.8c4.6,0,7.6-16.2,9.1-48.7c1.5-32.8,2.2-72.7,2.2-119.5c0-47.2-0.7-84.2-2-111.1
	c-1.3-27.3-3.9-40.9-7.9-40.9C44.5,49.2,36.3,49.2,36.3,49.2z M49.2,31.4c4.5,0,8,17.5,10.4,52.4c2.4,34.6,3.6,76.8,3.6,126.8
	c0,48.9-1.5,88.2-4.5,117.9c-3,29.7-5.4,46.5-7.3,50.3c4.1,13.3,7.3,35.8,9.8,67.6c2.5,31.4,3.7,74.9,3.7,130.5
	c0,61.1-1.6,107.4-4.8,138.9c-3.2,31.4-6.6,47.2-10.5,47.2H20.4v-20.4c3.2,0,5.3-11.9,6.3-35.6c1-23.8,1.5-61.3,1.5-112.7V200.1
	c0-51.4-0.5-88.9-1.5-112.7s-3.1-35.6-6.3-35.6V31.4H49.2z"/>
<path d="M87.4,385.6H97c4.8,0,8-15.4,9.6-46.1c1.6-31.1,2.4-68.8,2.4-113.2v-16.2c0-44.7-0.8-82.5-2.5-113.2
	c-1.6-30.7-4.9-46.1-9.9-46.1h-9.3v334.8H87.4z M102.5,31.4c5.8,0,9.9,18.5,12.2,55.6c2.3,37,3.4,77.6,3.4,121.6v23
	c0,49.3-1.6,90.5-4.7,123.7s-7,49.8-11.5,49.8H97c3,33.9,5.2,56.4,6.5,67.6c1.3,10.8,3,21.1,5.1,30.9l6.4,176.6
	c1,26.2,2.2,43.1,3.4,50.8c1.3,7.7,2.7,11.5,4.5,11.5v20.4h-14.2L95.7,405h-8.2v189.2c0,51.4,0.5,88.9,1.5,112.7s3.1,35.6,6.4,35.6
	v20.4H71.7v-20.4c3.2,0,5.3-11.9,6.3-35.6c1-23.8,1.5-61.3,1.5-112.7V200.1c0-51.4-0.5-88.9-1.5-112.7s-3.1-35.6-6.3-35.6V31.4
	H102.5z"/>
<path d="M138.6,513.7h14.7l-7.4-323.4L138.6,513.7z M148.6,14.6h1.2l15.7,665.8c0.7,25.6,1.7,42.4,2.8,50.5
	c1.2,7.7,2.4,11.6,3.8,11.6V763h-21.8v-20.5c3.1,0,5-3.9,5.8-11.6c0.8-8.1,1.2-20.5,1.2-37.3c0-17.9-1.1-71.3-3.3-160.4h-15.6
	l-1.6,72.1c-0.2,9.1-0.3,23.5-0.3,43.1c0.2,32.3,0.7,56.1,1.7,71.5c1,15.1,2.2,22.6,3.7,22.6V763h-15.4v-20.5
	c4.4,0,8.2-82.9,11.4-248.8L148.6,14.6z"/>
<path d="M192.2,31.4c4,0,7.1,14.3,9.2,42.8c2.1,28.5,3.5,42.8,4.2,42.8c1.2,0,2.7-36.2,4.7-85.5h1l0.8,348.2h-0.8
	c-1.9-115.4-4.5-199.1-7.8-251.1c-3.3-52.3-6.7-78.5-10.3-78.5c-3.9,0-6.6,30.4-8.2,91.1c-1.6,60.4-2.4,147.8-2.4,262.1
	c0,134.8,1.1,225.1,3.4,270.7c2.3,45.6,5.2,68.4,8.8,68.4c4.6,0,8.3-24.7,11.2-74s4.8-105.5,5.6-168.6h1.1
	c-0.8,65.7-2.7,126.1-5.8,181.1c-3.1,54.7-7.3,82-12.6,82c-6,0-11.1-37.6-15.2-112.7c-4.1-75.5-6.2-160.5-6.2-255.1
	c0-97.3,2-182.1,6-254.6C182.9,67.8,187.3,31.4,192.2,31.4z"/>
<path d="M227.7,513.7h14.7L235,190.3L227.7,513.7z M237.7,14.6h1.2l15.7,665.8c0.7,25.6,1.7,42.4,2.8,50.5
	c1.2,7.7,2.4,11.6,3.8,11.6V763h-21.8v-20.5c3.1,0,5-3.9,5.8-11.6c0.8-8.1,1.2-20.5,1.2-37.3c0-17.9-1.1-71.3-3.3-160.4h-15.6
	l-1.6,72.1c-0.2,9.1-0.3,23.5-0.3,43.1c0.2,32.3,0.7,56.1,1.7,71.5c1,15.1,2.2,22.6,3.7,22.6V763h-15.4v-20.5
	c4.4,0,8.2-82.9,11.4-248.8L237.7,14.6z"/>
<path d="M282,50.8v690.7h6.1c7.4,0,12.1-31.8,14.3-95.4c2.1-63.6,3.2-138.5,3.2-224.8V382c0-107.3-1.3-189.2-4-245.8
	c-2.7-56.9-7.2-85.4-13.8-85.4L282,50.8L282,50.8z M292.2,31.4c7.3,0,12.9,39,16.8,116.9c3.9,77.6,5.9,159.7,5.9,246.3v23
	c0,97.1-2.1,179.1-6.3,245.8c-4.2,66.4-9.2,99.6-14.9,99.6h-27.8v-20.4c3.5,0,5.7-11.9,6.7-35.6c1-23.8,1.5-61.3,1.5-112.7V200.1
	c0-51.4-0.5-88.9-1.5-112.7s-3.2-35.6-6.7-35.6V31.4H292.2z"/>
<path d="M330.2,513.7h14.7l-7.4-323.4L330.2,513.7z M340.2,14.6h1.2l15.7,665.8c0.7,25.6,1.7,42.4,2.8,50.5
	c1.2,7.7,2.4,11.6,3.8,11.6V763h-21.8v-20.5c3.1,0,5-3.9,5.8-11.6c0.8-8.1,1.2-20.5,1.2-37.3c0-17.9-1.1-71.3-3.3-160.4H330
	l-1.6,72.1c-0.2,9.1-0.3,23.5-0.3,43.1c0.2,32.3,0.7,56.1,1.7,71.5c1,15.1,2.2,22.6,3.7,22.6V763H318v-20.5
	c4.4,0,8.2-82.9,11.4-248.8L340.2,14.6z"/>
<path d="M384.2,390.9v352.2h8.2c3.6,0,6.4-15.4,8.3-46.1c1.9-30.7,2.9-75.5,2.9-134.2c0-54.5-1-96.8-3.1-126.8s-5.3-45.1-9.7-45.1
	L384.2,390.9L384.2,390.9z M384.2,49.2v320.2h6.8c4.6,0,7.6-16.2,9.1-48.7c1.5-32.8,2.2-72.7,2.2-119.5c0-47.2-0.7-84.2-2-111.1
	c-1.3-27.3-3.9-40.9-7.9-40.9C392.4,49.2,384.2,49.2,384.2,49.2z M397.2,31.4c4.5,0,8,17.5,10.4,52.4c2.4,34.6,3.6,76.9,3.6,126.8
	c0,48.9-1.5,88.2-4.5,117.9c-3,29.7-5.4,46.5-7.3,50.3c4.1,13.3,7.3,35.8,9.8,67.6c2.5,31.4,3.7,74.9,3.7,130.5
	c0,61.1-1.6,107.4-4.8,138.9c-3.2,31.4-6.6,47.2-10.5,47.2h-29.3v-20.4c3.2,0,5.3-11.9,6.3-35.6c1-23.8,1.5-61.3,1.5-112.7V200.1
	c0-51.4-0.5-88.9-1.5-112.7s-3.1-35.6-6.3-35.6V31.4H397.2z"/>
<path d="M435.4,385.6h9.6c4.8,0,8-15.4,9.6-46.1c1.6-31.1,2.4-68.8,2.4-113.2v-16.2c0-44.7-0.8-82.5-2.5-113.2
	c-1.6-30.7-4.9-46.1-9.9-46.1h-9.3L435.4,385.6L435.4,385.6z M450.4,31.4c5.8,0,9.9,18.5,12.2,55.6c2.3,37,3.4,77.6,3.4,121.6v23
	c0,49.3-1.6,90.5-4.7,123.7s-7,49.8-11.5,49.8H445c3,33.9,5.2,56.4,6.5,67.6c1.3,10.8,3,21.1,5.1,30.9l6.4,176.6
	c1,26.2,2.2,43.1,3.4,50.8c1.3,7.7,2.7,11.5,4.5,11.5v20.4h-14.2l-13-357.9h-8.2v189.2c0,51.4,0.5,88.9,1.5,112.7s3.1,35.6,6.4,35.6
	v20.4h-23.6v-20.4c3.2,0,5.3-11.9,6.3-35.6c1-23.8,1.5-61.3,1.5-112.7V200.1c0-51.4-0.5-88.9-1.5-112.7s-3.1-35.6-6.3-35.6V31.4
	H450.4z"/>
<path d="M486.5,513.7h14.7l-7.4-323.4L486.5,513.7z M496.5,14.6h1.2l15.7,665.8c0.7,25.6,1.7,42.4,2.8,50.5
	c1.2,7.7,2.4,11.6,3.8,11.6V763h-21.8v-20.5c3.1,0,5-3.9,5.8-11.6c0.8-8.1,1.2-20.5,1.2-37.3c0-17.9-1.1-71.3-3.3-160.4h-15.6
	l-1.6,72.1c-0.2,9.1-0.3,23.5-0.3,43.1c0.2,32.3,0.7,56.1,1.7,71.5c1,15.1,2.2,22.6,3.7,22.6V763h-15.4v-20.5
	c4.4,0,8.2-82.9,11.4-248.8L496.5,14.6z"/>
</svg>
