<?xml version="1.0" encoding="utf-8"?>
<!-- Generator: Adobe Illustrator 19.0.0, SVG Export Plug-In . SVG Version: 6.00 Build 0)  -->
<svg preserveAspectRatio="none" version="1.1" id="Layer_1" xmlns="http://www.w3.org/2000/svg" xmlns:xlink="http://www.w3.org/1999/xlink" x="0px" y="0px"
	 viewBox="-99 31.4 412 731.6" style="enable-background:new -99 31.4 412 731.6;" xml:space="preserve">
<path d="M-84.3,513.7h17.6l-8.8-323.4L-84.3,513.7z M-72.4,14.6h1.4l18.7,665.8c0.9,25.6,2,42.4,3.4,50.5c1.4,7.7,2.9,11.6,4.5,11.6
	V763h-26.1v-20.5c3.7,0,6-3.9,6.9-11.6c0.9-8.1,1.4-20.5,1.4-37.3c0-17.9-1.4-71.3-3.9-160.4h-18.7l-2,72.1
	c-0.2,9.1-0.3,23.5-0.3,43.1c0.2,32.3,0.9,56.1,2.1,71.5c1.2,15.1,2.7,22.6,4.4,22.6V763H-99v-20.5c5.2,0,9.8-82.9,13.7-248.8
	L-72.4,14.6z"/>
<path d="M-19.8,390.9v352.2h9.8c4.3,0,7.7-15.4,9.9-46.1c2.3-30.7,3.4-75.5,3.4-134.2C3.3,508.3,2,466-0.5,436s-6.4-45.1-11.6-45.1
	L-19.8,390.9L-19.8,390.9z M-19.8,49.2v320.2h8.2c5.5,0,9.1-16.2,10.9-48.7c1.8-32.8,2.6-72.7,2.6-119.5C1.9,154,1.1,117-0.4,90.1
	C-2,62.8-5.2,49.2-9.9,49.2H-19.8z M-4.4,31.4C1,31.4,5.2,48.8,8,83.8c2.9,34.6,4.3,76.9,4.3,126.8c0,48.9-1.8,88.2-5.3,117.9
	c-3.5,29.7-6.5,46.5-8.8,50.3C3.1,392.1,7,414.6,10,446.4c3,31.4,4.4,74.9,4.4,130.5c0,61.1-1.9,107.4-5.7,138.9
	C5,747.3,0.8,763-3.8,763h-35v-20.4c3.8,0,6.4-11.9,7.6-35.6c1.2-23.8,1.8-61.3,1.8-112.7V200.1c0-51.4-0.6-88.9-1.8-112.7
	s-3.7-35.6-7.6-35.6V31.4H-4.4z"/>
<path d="M41.3,385.6h11.5c5.7,0,9.5-15.4,11.5-46.1c1.9-31.1,2.9-68.8,2.9-113.2v-16.2c0-44.7-1-82.5-3-113.2s-5.9-46.1-11.8-46.1
	H41.3V385.6z M59.2,31.4c7,0,11.8,18.5,14.5,55.6c2.7,37,4.1,77.6,4.1,121.6v23c0,49.3-1.9,90.5-5.6,123.7s-8.3,49.8-13.8,49.8h-5.7
	c3.6,33.9,6.2,56.4,7.7,67.6c1.6,10.8,3.6,21.1,6.1,30.9l7.7,176.6c1.2,26.2,2.6,43.1,4.1,50.8s3.3,11.5,5.3,11.5v20.4h-17L51.1,405
	h-9.8v189.2c0,51.4,0.6,88.9,1.8,112.7s3.8,35.6,7.6,35.6v20.4H22.4v-20.4c3.8,0,6.4-11.9,7.6-35.6c1.2-23.8,1.8-61.3,1.8-112.7
	V200.1c0-51.4-0.6-88.9-1.8-112.7c-1.2-23.8-3.7-35.6-7.6-35.6V31.4H59.2z"/>
<path d="M102.3,513.7h17.6l-8.8-323.4L102.3,513.7z M114.3,14.6h1.4l18.7,665.8c0.9,25.6,2,42.4,3.4,50.5c1.4,7.7,2.9,11.6,4.5,11.6
	V763h-26.1v-20.5c3.7,0,6-3.9,6.9-11.6c0.9-8.1,1.4-20.5,1.4-37.3c0-17.9-1.4-71.3-3.9-160.4h-18.7l-2,72.1
	c-0.2,9.1-0.3,23.5-0.3,43.1c0.2,32.3,0.9,56.1,2.1,71.5c1.2,15.1,2.7,22.6,4.4,22.6V763H87.7v-20.5c5.2,0,9.8-82.9,13.7-248.8
	L114.3,14.6z"/>
<path d="M166.3,31.4c4.8,0,8.5,14.3,11,42.8s4.2,42.8,5,42.8c1.4,0,3.3-36.2,5.6-85.5h1.2l0.9,348.2h-1
	c-2.3-115.4-5.4-199.1-9.3-251.1c-3.9-52.3-8-78.5-12.3-78.5c-4.6,0-7.9,30.4-9.8,91.1c-1.9,60.4-2.9,147.8-2.9,262.1
	c0,134.8,1.4,225.1,4.1,270.7c2.8,45.6,6.2,68.4,10.5,68.4c5.5,0,9.9-24.7,13.3-74c3.4-49.3,5.7-105.5,6.7-168.6h1.3
	c-0.9,65.7-3.2,126.1-6.9,181.1c-3.7,54.7-8.7,82-15,82c-7.2,0-13.2-37.6-18.2-112.7c-4.9-75.5-7.4-160.5-7.4-255.1
	c0-97.3,2.4-182.1,7.2-254.6C155.2,67.8,160.5,31.4,166.3,31.4z"/>
<path d="M208.8,513.7h17.6l-8.8-323.4L208.8,513.7z M220.8,14.6h1.4l18.7,665.8c0.9,25.6,2,42.4,3.4,50.5c1.4,7.7,2.9,11.6,4.5,11.6
	V763h-26.1v-20.5c3.7,0,6-3.9,6.9-11.6c0.9-8.1,1.4-20.5,1.4-37.3c0-17.9-1.4-71.3-3.9-160.4h-18.7l-2,72.1
	c-0.2,9.1-0.3,23.5-0.3,43.1c0.2,32.3,0.9,56.1,2.1,71.5c1.2,15.1,2.7,22.6,4.4,22.6V763h-18.4v-20.5c5.2,0,9.8-82.9,13.7-248.8
	L220.8,14.6z"/>
<path d="M273.7,50.8v690.7h7.3c8.8,0,14.5-31.8,17.1-95.4s3.8-138.5,3.8-224.8V382c0-107.3-1.6-189.2-4.8-245.8
	c-3.2-56.9-8.7-85.4-16.5-85.4L273.7,50.8L273.7,50.8z M285.8,31.4c8.7,0,15.4,39,20.1,116.9c4.7,77.6,7.1,159.7,7.1,246.3v23
	c0,97.1-2.5,179.1-7.6,245.8c-5,66.4-11,99.6-17.8,99.6h-33.2v-20.4c4.1,0,6.8-11.9,8-35.6c1.2-23.8,1.8-61.3,1.8-112.7V200.1
	c0-51.4-0.6-88.9-1.8-112.7c-1.2-23.8-3.9-35.6-8-35.6V31.4H285.8z"/>
</svg>
