<?xml version="1.0" encoding="utf-8"?>
<!-- Generator: Adobe Illustrator 19.0.0, SVG Export Plug-In . SVG Version: 6.00 Build 0)  -->
<svg preserveAspectRatio="none" version="1.1" id="Layer_1" xmlns="http://www.w3.org/2000/svg" xmlns:xlink="http://www.w3.org/1999/xlink" x="0px" y="0px"
	 viewBox="-47 31.3 516 731.7" style="enable-background:new -47 31.3 516 731.7;" xml:space="preserve">
<path d="M-32.6,513.7h17.1l-8.6-323.4L-32.6,513.7z M-21,14.6h1.4l18.3,665.8c0.8,25.6,1.9,42.4,3.3,50.5c1.4,7.7,2.8,11.6,4.4,11.6
	V763H-19v-20.5c3.6,0,5.9-3.9,6.7-11.6c0.9-8.1,1.3-20.5,1.3-37.3c0-17.9-1.3-71.3-3.8-160.4H-33l-1.9,72.1
	c-0.2,9.1-0.3,23.5-0.3,43.1c0.2,32.3,0.9,56.1,2,71.5c1.2,15.1,2.6,22.6,4.3,22.6V763h-18v-20.5c5.1,0,9.5-82.9,13.3-248.8
	L-21,14.6z"/>
<path d="M30.3,390.9v352.2h9.6c4.2,0,7.5-15.4,9.7-46.1c2.2-30.7,3.3-75.5,3.3-134.2c0-54.5-1.2-96.8-3.7-126.8
	c-2.4-30-6.2-45.1-11.3-45.1L30.3,390.9L30.3,390.9z M30.3,49.2v320.2h8c5.4,0,8.9-16.2,10.6-48.7c1.7-32.8,2.6-72.7,2.6-119.5
	c0-47.2-0.8-84.2-2.3-111.1c-1.5-27.3-4.6-40.9-9.2-40.9C40,49.2,30.3,49.2,30.3,49.2z M45.4,31.4c5.3,0,9.3,17.5,12.1,52.4
	c2.8,34.6,4.2,76.9,4.2,126.8c0,48.9-1.7,88.2-5.2,117.9C53,358.2,50.2,375,48,378.8c4.7,13.3,8.5,35.8,11.4,67.6
	c2.9,31.4,4.3,74.9,4.3,130.5c0,61.1-1.8,107.4-5.5,138.9C54.5,747.2,50.5,763,46,763H11.9v-20.4c3.8,0,6.2-11.9,7.4-35.6
	c1.2-23.8,1.8-61.3,1.8-112.7V200.1c0-51.4-0.6-88.9-1.8-112.7c-1.2-23.8-3.6-35.6-7.4-35.6V31.4H45.4z"/>
<path d="M89.9,385.6h11.2c5.6,0,9.3-15.4,11.2-46.1c1.9-31.1,2.8-68.8,2.8-113.2v-16.2c0-44.7-1-82.5-2.9-113.2s-5.7-46.1-11.5-46.1
	H89.9V385.6z M107.4,31.4c6.8,0,11.5,18.5,14.2,55.6c2.7,37,4,77.6,4,121.6v23c0,49.3-1.8,90.5-5.5,123.7s-8.1,49.8-13.5,49.8h-5.5
	c3.5,33.9,6,56.4,7.5,67.6c1.5,10.8,3.5,21.1,6,30.9l7.5,176.6c1.2,26.2,2.5,43.1,4,50.8s3.2,11.5,5.2,11.5v20.4h-16.6L99.5,405
	h-9.6v189.2c0,51.4,0.6,88.9,1.8,112.7c1.2,23.8,3.7,35.6,7.4,35.6v20.4H71.6v-20.4c3.8,0,6.2-11.9,7.4-35.6
	c1.2-23.8,1.8-61.3,1.8-112.7V200.1c0-51.4-0.6-88.9-1.8-112.7c-1.2-23.8-3.6-35.6-7.4-35.6V31.4H107.4z"/>
<path d="M149.4,513.7h17.1l-8.6-323.4L149.4,513.7z M161.1,14.6h1.4l18.3,665.8c0.8,25.6,1.9,42.4,3.3,50.5
	c1.4,7.7,2.8,11.6,4.4,11.6V763h-25.4v-20.5c3.6,0,5.9-3.9,6.7-11.6c0.9-8.1,1.3-20.5,1.3-37.3c0-17.9-1.3-71.3-3.8-160.4h-18.2
	l-1.9,72.1c-0.2,9.1-0.3,23.5-0.3,43.1c0.2,32.3,0.9,56.1,2,71.5c1.2,15.1,2.6,22.6,4.3,22.6V763h-17.9v-20.5
	c5.1,0,9.5-82.9,13.3-248.8L161.1,14.6z"/>
<path d="M211.9,31.3c4.7,0,8.3,14.3,10.8,42.8s4.1,42.8,4.9,42.8c1.4,0,3.2-36.1,5.5-85.4h1.2l0.9,348.1h-1
	c-2.2-115.4-5.2-199.1-9.1-251.1c-3.8-52.3-7.8-78.5-12-78.5c-4.5,0-7.7,30.4-9.6,91.1c-1.9,60.4-2.8,147.8-2.8,262.2
	c0,134.9,1.3,225.1,4,270.7s6.1,68.4,10.2,68.4c5.3,0,9.7-24.7,13-74c3.4-49.3,5.5-105.5,6.5-168.6h1.3
	c-0.9,65.8-3.1,126.1-6.7,181.2c-3.6,54.7-8.5,82-14.6,82c-7,0-12.9-37.6-17.7-112.7c-4.8-75.5-7.2-160.5-7.2-255.1
	c0-97.3,2.3-182.2,7-254.6C201.1,67.7,206.3,31.3,211.9,31.3z"/>
<path d="M253.4,513.7h17.1l-8.6-323.4L253.4,513.7z M265,14.6h1.4l18.3,665.8c0.8,25.6,1.9,42.4,3.3,50.5c1.4,7.7,2.8,11.6,4.4,11.6
	V763h-25.4v-20.5c3.6,0,5.9-3.9,6.7-11.6c0.9-8.1,1.3-20.5,1.3-37.3c0-17.9-1.3-71.3-3.8-160.4h-18.2l-1.9,72.1
	c-0.2,9.1-0.3,23.5-0.3,43.1c0.2,32.3,0.9,56.1,2,71.5c1.2,15.1,2.6,22.6,4.3,22.6V763h-18v-20.5c5.1,0,9.5-82.9,13.3-248.8
	L265,14.6z"/>
<path d="M316.5,50.8v690.7h7.1c8.6,0,14.1-31.8,16.6-95.4s3.8-138.5,3.8-224.8V382c0-107.3-1.6-189.2-4.7-245.8
	c-3.1-56.9-8.4-85.4-16.1-85.4L316.5,50.8L316.5,50.8z M328.5,31.4c8.5,0,15,39,19.6,116.9c4.6,77.6,6.9,159.7,6.9,246.3v23
	c0,97.1-2.5,179.1-7.4,245.8c-4.9,66.4-10.7,99.6-17.4,99.6h-32.4v-20.4c4,0,6.7-11.9,7.8-35.6c1.2-23.8,1.8-61.3,1.8-112.7V200.1
	c0-51.4-0.6-88.9-1.8-112.7s-3.8-35.6-7.8-35.6V31.4H328.5z"/>
<path d="M372.8,513.7h17.1l-8.6-323.4L372.8,513.7z M384.3,14.6h1.4L404,680.4c0.8,25.6,1.9,42.4,3.3,50.5
	c1.4,7.7,2.8,11.6,4.4,11.6V763h-25.4v-20.5c3.6,0,5.9-3.9,6.7-11.6c0.9-8.1,1.3-20.5,1.3-37.3c0-17.9-1.3-71.3-3.8-160.4h-18.2
	l-1.9,72.1c-0.2,9.1-0.3,23.5-0.3,43.1c0.2,32.3,0.9,56.1,2,71.5c1.2,15.1,2.6,22.6,4.3,22.6V763h-17.9v-20.5
	c5.1,0,9.5-82.9,13.3-248.8L384.3,14.6z"/>
<path d="M435.7,390.9v352.2h9.6c4.2,0,7.5-15.4,9.7-46.1c2.2-30.7,3.3-75.5,3.3-134.2c0-54.5-1.2-96.8-3.7-126.8
	c-2.4-30-6.2-45.1-11.3-45.1L435.7,390.9L435.7,390.9z M435.7,49.2v320.2h8c5.4,0,8.9-16.2,10.6-48.7c1.7-32.8,2.6-72.7,2.6-119.5
	c0-47.2-0.8-84.2-2.3-111.1c-1.5-27.3-4.6-40.9-9.2-40.9C445.4,49.2,435.7,49.2,435.7,49.2z M450.7,31.4c5.3,0,9.3,17.5,12.1,52.4
	c2.8,34.6,4.2,76.9,4.2,126.8c0,48.9-1.7,88.2-5.2,117.9c-3.5,29.7-6.3,46.5-8.5,50.3c4.7,13.3,8.5,35.8,11.4,67.6
	c2.9,31.4,4.3,74.9,4.3,130.5c0,61.1-1.8,107.4-5.5,138.9c-3.7,31.4-7.7,47.2-12.2,47.2h-34.1v-20.4c3.8,0,6.2-11.9,7.4-35.6
	c1.2-23.8,1.8-61.3,1.8-112.7V200.1c0-51.4-0.6-88.9-1.8-112.7c-1.2-23.8-3.6-35.6-7.4-35.6V31.4H450.7z"/>
</svg>
