<svg width="916" height="462" viewBox="0 0 916 462" fill="none" xmlns="http://www.w3.org/2000/svg">
<path d="M0 302V299.871L12.8276 296.679V158.321L0 155.129V153H38.4828C45.1816 153 50.954 153.78 55.8 155.341C60.7885 156.76 64.9218 158.818 68.2 161.514C71.4782 164.069 73.9011 167.12 75.469 170.667C77.1793 174.073 78.0345 177.762 78.0345 181.736C78.0345 184.858 77.5356 187.625 76.5379 190.037C75.6828 192.45 74.4713 194.578 72.9034 196.423C71.4782 198.126 69.7678 199.687 67.7724 201.106C65.9195 202.383 63.9954 203.447 62 204.299C57.2966 206.427 51.9517 207.775 45.9655 208.343C54.8023 209.194 62.6414 211.394 69.4827 214.941C72.4759 216.502 75.3264 218.418 78.0345 220.689C80.8851 222.817 83.3793 225.513 85.5172 228.777C87.7977 231.899 89.5793 235.589 90.8621 239.846C92.2874 243.961 93 248.715 93 254.107C93 260.777 91.7172 267.02 89.1517 272.839C86.5862 278.657 82.8805 283.765 78.0345 288.164C73.331 292.421 67.6299 295.827 60.931 298.381C54.2322 300.794 46.7494 302 38.4828 302H0ZM31 210.471V297.743H38.4828C43.3287 297.743 47.8184 296.82 51.9517 294.976C56.0851 293.131 59.6483 290.364 62.6414 286.674C65.777 282.985 68.2 278.444 69.9103 273.051C71.7632 267.659 72.6897 261.344 72.6897 254.107C72.6897 246.87 71.7632 240.555 69.9103 235.163C68.2 229.77 65.777 225.23 62.6414 221.54C59.6483 217.85 56.0851 215.083 51.9517 213.239C47.8184 211.394 43.3287 210.471 38.4828 210.471H31ZM31 206.214H38.4828C44.8966 206.072 50.0276 204.015 53.8759 200.041C57.8667 195.926 59.8621 189.824 59.8621 181.736C59.8621 173.647 57.8667 167.545 53.8759 163.43C50.0276 159.315 44.8966 157.257 38.4828 157.257H31V206.214Z" fill="black"/>
<path d="M85 208H182.775V215.096C175.763 215.096 170.719 216.734 167.642 220.009C164.565 223.284 163.027 226.923 163.027 230.926C163.027 238.81 168.035 251.85 178.053 270.044L198.874 310.437L223.989 267.497C226.922 261.311 228.783 256.156 229.57 252.032C230.357 247.786 230.75 243.904 230.75 240.387C230.75 233.837 228.604 228.014 224.311 222.92C220.018 217.704 213.971 215.096 206.172 215.096V208H287.204V215.096C283.197 215.096 276.007 218.614 265.632 225.649C255.257 232.563 245.168 243.662 235.365 258.946L201.772 316.623L256.079 423.427C262.519 435.314 268.887 443.563 275.184 448.172C281.552 452.66 287.491 454.904 293 454.904V462H193.078V454.904C203.883 454.904 211.217 453.509 215.081 450.719C218.944 447.808 220.876 443.926 220.876 439.074C220.876 435.072 220.161 431.19 218.73 427.43C217.37 423.67 215.259 419.242 212.397 414.148L180.95 352.103L151.114 405.778C149.468 408.932 148.216 412.207 147.357 415.603C146.57 419 146.176 423.245 146.176 428.34C146.176 438.771 149.253 445.807 155.407 449.446C161.632 453.085 168.071 454.904 174.725 454.904V462H85V454.904C95.0172 454.904 106.322 448.475 118.915 435.617C131.508 422.639 142.778 407.84 152.723 391.222L178.375 346.463L138.771 269.499C124.031 239.416 112.762 222.859 104.963 219.827C97.2353 216.673 90.581 215.096 85 215.096V208Z" fill="black"/>
<path d="M271.96 165.4C271.96 171.288 271.288 176.44 269.944 180.856C268.664 185.208 266.936 188.856 264.76 191.8C262.648 194.68 260.248 196.856 257.56 198.328C254.872 199.736 252.152 200.44 249.4 200.44C246.648 200.44 243.928 199.736 241.24 198.328C238.552 196.856 236.12 194.68 233.944 191.8C231.832 188.856 230.104 185.208 228.76 180.856C227.48 176.44 226.84 171.288 226.84 165.4C226.84 159.512 227.48 154.392 228.76 150.04C230.104 145.624 231.832 141.976 233.944 139.096C236.12 136.152 238.552 133.976 241.24 132.568C243.928 131.096 246.648 130.36 249.4 130.36C252.152 130.36 254.872 131.096 257.56 132.568C260.248 133.976 262.648 136.152 264.76 139.096C266.936 141.976 268.664 145.624 269.944 150.04C271.288 154.392 271.96 159.512 271.96 165.4ZM262.84 165.4C262.84 158.808 262.424 153.368 261.592 149.08C260.824 144.728 259.768 141.272 258.424 138.712C257.144 136.152 255.704 134.36 254.104 133.336C252.504 132.312 250.936 131.8 249.4 131.8C247.864 131.8 246.296 132.312 244.696 133.336C243.096 134.36 241.624 136.152 240.28 138.712C239 141.272 237.944 144.728 237.112 149.08C236.344 153.368 235.96 158.808 235.96 165.4C235.96 171.992 236.344 177.464 237.112 181.816C237.944 186.104 239 189.528 240.28 192.088C241.624 194.648 243.096 196.44 244.696 197.464C246.296 198.488 247.864 199 249.4 199C250.936 199 252.504 198.488 254.104 197.464C255.704 196.44 257.144 194.648 258.424 192.088C259.768 189.528 260.824 186.104 261.592 181.816C262.424 177.464 262.84 171.992 262.84 165.4Z" fill="black"/>
<path d="M480.955 263.83C476.409 265.971 471.068 267.5 464.932 268.418C459.023 269.029 452.886 269.182 446.523 268.876C440.159 268.265 434.023 267.041 428.114 265.206C422.205 263.065 416.977 260.159 412.432 256.489C406.75 251.901 401.977 247.312 398.114 242.724C394.477 238.136 391.409 233.089 388.909 227.584C386.636 222.078 384.932 215.961 383.795 209.232C382.886 202.196 382.432 194.244 382.432 185.374C382.432 173.139 384.364 162.127 388.227 152.339C392.318 142.246 397.773 133.834 404.591 127.105C411.409 120.376 419.25 115.176 428.114 111.506C436.977 107.835 446.295 106 456.068 106C465.159 106 473.227 107.988 480.273 111.964C487.318 115.635 493.227 120.988 498 128.023C503 134.752 506.75 142.857 509.25 152.339C511.977 161.516 513.341 171.762 513.341 183.08C513.341 192.562 512.659 202.655 511.295 213.361C510.159 223.76 508.227 233.548 505.5 242.724C509.818 242.113 515.273 240.125 521.864 236.76C528.682 233.089 535.727 227.89 543 221.16L545.386 225.29C534.932 249.454 527.091 273.312 521.864 296.864C516.864 320.11 513.114 342.285 510.614 363.391C510.159 368.285 509.818 373.943 509.591 380.366C509.364 386.79 509.364 392.907 509.591 398.719C510.045 404.53 510.727 409.577 511.636 413.859C512.773 417.836 514.25 419.824 516.068 419.824C521.295 419.824 526.068 417.224 530.386 412.024C534.932 406.518 539.818 400.248 545.045 393.213C547.318 390.154 549.818 386.79 552.545 383.119C555.273 379.143 557.773 375.473 560.045 372.108C562.545 368.438 564.591 365.379 566.182 362.932C568 360.485 569.136 358.803 569.591 357.885C570.045 357.273 570.727 356.967 571.636 356.967C572.545 356.967 573 357.885 573 359.72C573 360.332 571.636 362.626 568.909 366.602C566.182 370.579 563.455 374.555 560.727 378.531C556.409 384.649 552.205 390.613 548.114 396.425C544.023 401.93 540.045 406.977 536.182 411.565C532.318 415.848 528.455 419.365 524.591 422.118C520.955 424.871 517.205 426.247 513.341 426.247C509.25 426.247 505.5 424.871 502.091 422.118C498.682 419.365 495.955 415.542 493.909 410.648C491.864 405.754 490.5 400.095 489.818 393.672C489.364 386.943 489.705 379.602 490.841 371.649C492.886 359.108 495.5 346.721 498.682 334.486C501.864 322.251 505.386 310.322 509.25 298.699C513.341 287.076 517.432 275.911 521.523 265.206C525.841 254.5 530.045 244.407 534.136 234.925C531.864 237.066 529.705 239.054 527.659 240.889C525.614 242.419 523.341 244.101 520.841 245.936C518.568 247.771 515.841 249.759 512.659 251.901C509.477 254.042 505.614 256.489 501.068 259.241C494.477 280.041 486.409 300.993 476.864 322.098C467.318 343.203 454.818 362.626 439.364 380.366C429.818 391.072 420.614 399.636 411.75 406.06C403.114 412.483 394.705 417.377 386.523 420.741C378.568 424.106 370.955 426.247 363.682 427.165C356.409 428.388 349.591 429 343.227 429C333 429 322.773 427.165 312.545 423.494C302.545 419.824 293.455 414.165 285.273 406.518C277.091 398.566 270.5 388.472 265.5 376.237C260.5 363.697 258 348.556 258 330.815C258 315.522 260.159 301.758 264.477 289.523C269.023 276.982 274.818 266.429 281.864 257.865C289.136 248.995 297.432 242.266 306.75 237.678C316.068 233.089 325.614 230.795 335.386 230.795C344.932 230.795 353.568 232.631 361.295 236.301C369.25 239.972 375.955 244.866 381.409 250.983C387.091 256.795 391.523 263.83 394.705 272.088C397.886 280.041 399.477 288.452 399.477 297.322C399.477 311.087 397.205 323.016 392.659 333.109C388.114 343.203 382.432 351.462 375.614 357.885C368.795 364.308 361.295 369.049 353.114 372.108C344.932 375.167 337.205 376.696 329.932 376.696C324.023 376.696 318.341 376.084 312.886 374.861C307.659 373.331 303.795 371.496 301.295 369.355C300.614 368.743 300.386 367.979 300.614 367.061C301.068 365.838 301.636 365.379 302.318 365.685C306.636 367.214 310.614 368.59 314.25 369.814C317.886 370.732 323.682 371.19 331.636 371.19C339.364 371.19 346.864 369.508 354.136 366.143C361.636 362.473 368.341 357.579 374.25 351.462C380.159 345.344 384.932 338.003 388.568 329.439C392.205 320.569 394.023 311.087 394.023 300.993C394.023 292.123 392.659 284.476 389.932 278.053C387.205 271.323 383.455 265.818 378.682 261.536C374.136 256.947 368.682 253.583 362.318 251.442C356.182 249.301 349.477 248.23 342.205 248.23C328.114 248.23 316.409 251.442 307.091 257.865C298 264.288 289.932 273.464 282.886 285.393C277.205 295.181 273.227 305.122 270.955 315.216C268.682 325.004 267.545 335.709 267.545 347.332C267.545 357.732 269.364 367.52 273 376.696C276.636 385.872 281.523 393.978 287.659 401.013C293.795 407.742 300.841 413.248 308.795 417.53C316.75 421.506 325.045 423.494 333.682 423.494C336.409 423.494 340.727 423.341 346.636 423.035C352.773 422.73 359.818 421.2 367.773 418.447C375.955 415.695 384.591 411.412 393.682 405.601C403 399.789 412.205 391.378 421.295 380.366C429.477 370.273 436.409 360.791 442.091 351.92C447.773 343.05 452.773 334.027 457.091 324.851C461.409 315.675 465.386 306.193 469.023 296.405C472.886 286.311 476.864 275.453 480.955 263.83ZM486.409 246.395C489.591 235.078 492.091 223.455 493.909 211.526C495.955 199.597 496.977 187.973 496.977 176.656C496.977 168.704 496.295 160.904 494.932 153.257C493.568 145.61 491.295 138.728 488.114 132.611C484.932 126.493 480.727 121.599 475.5 117.929C470.5 113.953 464.25 111.964 456.75 111.964C450.386 111.964 444.023 113.647 437.659 117.011C431.295 120.07 425.5 124.658 420.273 130.776C415.273 136.587 411.068 143.928 407.659 152.798C404.477 161.363 402.886 171.151 402.886 182.162C402.886 194.397 404.591 204.949 408 213.82C411.409 222.384 415.955 229.419 421.636 234.925C427.318 240.43 433.795 244.407 441.068 246.854C448.568 249.301 456.295 250.524 464.25 250.524C467.659 250.524 471.068 250.218 474.477 249.607C478.114 248.995 482.091 247.924 486.409 246.395Z" fill="black"/>
<path d="M336.913 174.517V18H296.047V20.1183C296.047 141.566 296.047 164.161 288.724 174.517H284V215H288.724L297.465 189.816H330.535L339.276 215H344V174.517H336.913ZM319.197 174.517H300.535C302.425 149.098 302.425 112.381 302.425 33.2987H319.197V174.517Z" fill="black"/>
<path d="M744.523 226H555.031V223.258C563.469 223.258 569 221.664 571.625 218.477C574.297 215.289 575.633 210.25 575.633 203.359V150.484C575.633 143.594 574.297 138.555 571.625 135.367C569 132.18 563.469 130.586 555.031 130.586V127.844H616.203V130.586C608.234 130.586 602.914 132.18 600.242 135.367C597.617 138.555 596.305 143.594 596.305 150.484V223.258H640.812V150.484C640.812 143.594 639.477 138.555 636.805 135.367C634.18 132.18 629.117 130.586 621.617 130.586V127.844H680.68V130.586C673.18 130.586 668.094 132.18 665.422 135.367C662.797 138.555 661.484 143.594 661.484 150.484V223.258H705.992V150.484C705.992 143.594 704.656 138.555 701.984 135.367C699.359 132.18 694.062 130.586 686.094 130.586V127.844H747.266V130.586C738.828 130.586 733.273 132.18 730.602 135.367C727.977 138.555 726.664 143.594 726.664 150.484V203.359C726.664 210.25 727.977 215.289 730.602 218.477C733.273 221.664 738.828 223.258 747.266 223.258V226C746.844 239.734 741.758 249.859 732.008 256.375C722.258 262.891 709.578 266.383 693.969 266.852C679.25 266.852 664.109 264.602 648.547 260.102C633.031 255.648 620.375 253.422 610.578 253.422C602.375 253.422 595.602 254.57 590.258 256.867C584.961 259.164 580.484 263.734 576.828 270.578L574.578 268.328C578.375 257.078 584.539 248.875 593.07 243.719C601.648 238.609 610.438 236.055 619.438 236.055C630.172 236.055 643.391 238.797 659.094 244.281C674.797 249.766 690.359 252.508 705.781 252.508C720.5 252.508 730.461 250.281 735.664 245.828C740.914 241.375 743.867 234.766 744.523 226Z" fill="black"/>
<path d="M742.078 130.525L746.505 127.039L751.709 96.9611L748.499 93.4753L748.551 93H763.413L763.335 93.4753L758.907 96.9611L754.713 121.203L774.831 99.7338L775.323 96.9611L772.086 93.4753L772.164 93H787L786.922 93.4753L782.495 96.9611L777.291 127.039L780.553 130.525L780.449 131H765.613L765.691 130.525L770.093 127.065L774.442 102.084L754.299 123.553L753.703 127.039L756.914 130.525L756.836 131H742L742.078 130.525Z" fill="black"/>
<path d="M915.281 129.305V130.5H865.781V129.305L877.664 116.508V56.8125L826.617 106.102V116.367L838.57 129.305V130.5H789V129.305L800.953 116.438V43.4531L789 30.5156V29.3203H838.57V30.5156L826.617 43.4531V101.039L877.664 51.8203V43.3828L865.641 30.5156V29.3203H915.211V30.5156L903.258 43.4531V116.367L915.281 129.305ZM852 22.0781C847.266 22.0781 843.188 21.0234 839.766 18.9141C836.344 16.7578 833.766 14.0156 832.031 10.6875C830.297 7.35938 829.383 3.91406 829.289 0.351562L830.695 0C831.82 2.57812 834.023 4.61719 837.305 6.11719C840.586 7.57031 845.484 8.29688 852 8.29688C858.562 8.29688 863.508 7.57031 866.836 6.11719C870.164 4.61719 872.414 2.57812 873.586 0L874.852 0.351562C874.758 3.96094 873.844 7.42969 872.109 10.7578C870.375 14.0859 867.797 16.8047 864.375 18.9141C860.953 21.0234 856.828 22.0781 852 22.0781Z" fill="black"/>
</svg>
