<svg width="731" height="474" viewBox="0 0 731 474" fill="none" xmlns="http://www.w3.org/2000/svg">
<path d="M453 53.5529C453 64.9471 448.637 76.9111 439.911 89.4447C431.185 101.978 419.234 114.512 404.058 127.046C389.261 139.2 371.809 150.974 351.701 162.368C331.972 173.762 310.726 184.017 287.962 193.132C265.198 201.868 241.676 209.084 217.394 214.781C193.492 220.478 169.97 223.707 146.827 224.466C138.101 243.077 130.702 262.447 124.632 282.577C118.941 302.327 116.095 322.647 116.095 343.536C116.095 366.704 120.079 383.606 128.046 394.24C136.393 404.875 152.518 410.572 176.42 411.332C176.04 408.293 175.661 405.445 175.281 402.786C174.902 399.748 174.712 396.709 174.712 393.671C174.712 371.642 177.558 351.132 183.249 332.142C188.94 313.151 196.717 296.82 206.582 283.147C216.446 269.474 228.018 258.839 241.296 251.243C254.575 243.267 268.992 239.279 284.548 239.279C298.965 239.279 309.967 244.026 317.555 253.522C325.143 263.017 328.937 274.601 328.937 288.274C328.937 304.606 324.384 320.368 315.279 335.56C306.173 350.373 294.412 363.666 279.995 375.44C265.957 387.214 250.402 396.899 233.329 404.495C216.256 412.091 199.942 416.459 184.387 417.599C185.905 433.55 187.991 445.894 190.647 454.63C193.303 463.745 194.631 469.062 194.631 470.582C194.631 472.861 193.682 474 191.785 474C191.026 474 189.888 471.911 188.371 467.733C186.853 463.555 185.335 458.428 183.818 452.351C182.3 446.274 180.972 440.007 179.834 433.55C178.696 427.474 177.937 422.346 177.558 418.168C145.309 418.168 120.838 409.243 104.144 391.392C87.8304 373.161 79.6734 348.853 79.6734 318.469C79.6734 311.252 80.4322 303.466 81.9498 295.111C83.8467 286.755 86.1231 278.399 88.7789 270.043C91.4347 261.308 94.4698 252.952 97.8844 244.976C101.299 237 104.714 229.784 108.128 223.327C93.7111 222.188 79.8631 218.769 66.5842 213.072C53.6847 206.995 42.3028 199.399 32.4384 190.284C22.5741 180.788 14.6068 169.964 8.53643 157.81C2.84548 145.276 0 131.793 0 117.361C0 100.269 3.41458 84.5072 10.2437 70.0745C17.0729 55.6418 26.5578 43.2981 38.6985 33.0433C50.8392 22.7885 65.2563 14.8125 81.9498 9.11542C98.6432 3.03848 117.044 0 137.152 0C147.396 0 158.588 1.32934 170.729 3.98801C182.869 6.64665 194.82 10.6346 206.582 15.9519C218.722 21.2692 230.484 28.1058 241.866 36.4615C253.247 44.8173 263.491 54.6923 272.597 66.0865C282.082 60.7692 292.515 55.262 303.897 49.5649C315.279 43.488 326.85 38.1707 338.612 33.613C350.753 28.6755 362.893 24.6875 375.034 21.649C387.554 18.6106 399.505 17.0914 410.887 17.0914C423.028 17.0914 433.082 19.9399 441.049 25.637C449.016 31.3341 453 40.6394 453 53.5529ZM131.461 6.83656C113.629 6.83656 97.1256 9.68512 81.9498 15.3822C67.1533 20.6995 54.2538 28.1058 43.2513 37.6009C32.6282 46.7164 24.2814 57.351 18.2111 69.5048C12.1407 81.6587 9.10553 94.1923 9.10553 107.106C9.10553 121.538 12.5201 134.642 19.3492 146.416C26.5578 157.81 35.4736 167.685 46.0967 176.041C57.0992 184.017 69.0503 190.284 81.9498 194.841C94.8493 199.399 107.369 202.058 119.51 202.817C127.857 188.764 138.101 175.091 150.241 161.798C162.761 148.505 175.661 136.161 188.94 124.767C202.598 113.373 216.256 102.928 229.915 93.4327C243.573 83.9375 255.903 75.9615 266.906 69.5048C250.212 48.9952 229.915 33.4231 206.013 22.7885C182.111 12.1539 157.26 6.83656 131.461 6.83656ZM415.44 23.9279C403.299 23.9279 390.779 25.637 377.879 29.0553C364.98 32.0938 352.46 36.2717 340.319 41.589C328.178 46.5265 316.607 52.0337 305.604 58.1106C294.981 63.8077 285.876 69.3149 278.288 74.6322C283.22 81.0889 287.583 87.5457 291.377 94.0024C295.55 100.459 299.155 106.536 302.19 112.233C305.225 117.55 307.501 122.108 309.019 125.906C310.916 129.325 311.864 131.224 311.864 131.603C311.864 133.882 310.726 135.022 308.45 135.022C307.691 135.022 306.742 133.882 305.604 131.603C304.466 128.945 302.569 125.337 299.913 120.779C297.637 115.841 294.412 109.764 290.239 102.548C286.065 95.3317 280.374 86.976 273.166 77.4808C248.126 93.4327 225.741 112.233 206.013 133.882C186.663 155.531 169.59 179.269 154.794 205.096C180.593 205.096 205.633 202.627 229.915 197.69C254.575 192.752 277.719 186.296 299.344 178.32C320.97 169.964 340.699 160.659 358.53 150.404C376.741 139.769 392.297 128.755 405.196 117.361C418.095 105.966 428.149 94.762 435.358 83.7476C442.567 72.3534 446.171 61.9087 446.171 52.4135C446.171 44.8173 443.895 38.1707 439.342 32.4736C434.789 26.7765 426.822 23.9279 415.44 23.9279ZM322.108 287.704C322.108 275.93 319.263 266.435 313.572 259.219C307.881 252.002 298.965 248.394 286.824 248.394C274.683 248.394 262.543 253.142 250.402 262.637C238.261 271.752 227.259 283.526 217.394 297.959C207.53 312.392 199.373 328.534 192.923 346.385C186.853 364.236 183.818 381.707 183.818 398.798V411.332C197.856 410.952 213.031 407.154 229.345 399.938C245.66 392.721 260.646 383.416 274.304 372.022C287.962 360.627 299.344 347.714 308.45 333.281C317.555 318.469 322.108 303.276 322.108 287.704Z" fill="black"/>
<path d="M367.579 249C360.64 249 354.876 252.7 354.876 262.5V284.6H349.006V250H341V323H349.006V286.6H354.876V312.3C354.876 320.9 358.933 324 366.298 324C373.236 324 379 320.3 379 310.5V260.7C379 252.1 375.051 249 367.579 249ZM370.994 311.5C370.994 315 370.354 317.2 367.579 317.2C365.017 317.2 362.882 316.1 362.882 308.9V261.5C362.882 258 363.629 255.8 366.831 255.8C368.966 255.8 370.994 256.9 370.994 264.1V311.5Z" fill="black"/>
<path d="M372.648 348.738C376.521 346.128 380.65 340.24 385.035 331.074C389.42 321.909 398.248 294.745 411.518 249.584C412.03 247.581 412.343 246.215 412.457 245.486C412.571 244.697 412.628 243.787 412.628 242.755C412.514 239.356 410.436 236.139 406.392 233.104C402.348 230.068 396.625 228.551 389.221 228.551V225H499.166V228.551C488.915 228.551 482.166 230.615 478.92 234.742C475.73 238.87 474.136 245.395 474.136 254.318V348.738H506L494.894 400H491.99C489.826 375.902 486.523 361.88 482.08 357.934C477.695 354.05 473.31 352.107 468.925 352.107H390.075C385.69 352.107 381.276 354.05 376.834 357.934C372.449 361.88 369.174 375.902 367.01 400H364.106L353 348.738H372.648ZM449.02 348.738V228.551C436.491 228.551 428.347 230.524 424.588 234.469C420.829 238.354 417.497 244.667 414.593 253.408C401.209 297.173 392.581 323.274 388.709 331.712C384.893 340.149 381.561 345.825 378.714 348.738H449.02Z" fill="black"/>
<path d="M700.123 270.826L684.3 277.681L684.55 261.39C676.131 263.645 667.531 265.283 658.75 266.303C650.052 267.113 641.538 266.538 633.207 264.579C630.13 271.133 626.486 277.584 622.276 283.932C618.149 290.07 613.392 295.959 608.005 301.599C602.618 307.239 596.537 312.484 589.763 317.333C582.99 322.181 575.574 326.351 567.515 329.842C559.897 333.143 552.2 335.259 544.426 336.191C536.734 336.913 529.467 336.407 522.626 334.673C515.784 332.939 509.65 330.028 504.225 325.94C498.946 321.788 494.879 316.416 492.023 309.823C488.532 301.765 487.284 293.866 488.281 286.125C489.215 278.239 491.545 270.965 495.272 264.304C498.935 257.497 503.514 251.598 509.008 246.607C514.585 241.407 520.231 237.569 525.945 235.093C532.685 232.173 539.031 230.555 544.984 230.238C550.874 229.775 556.243 230.32 561.092 231.873C565.941 233.427 570.102 235.8 573.574 238.994C577.046 242.189 579.734 245.983 581.638 250.379C584.114 256.093 584.943 261.823 584.127 267.571C583.458 273.256 581.697 278.63 578.844 283.694C575.928 288.611 572.214 293.092 567.701 297.135C563.125 301.031 558.273 304.091 553.145 306.312C548.603 308.28 545.683 309.371 544.384 309.586C543.231 309.737 542.496 309.447 542.179 308.714C541.798 307.835 542.047 307.205 542.926 306.824C543.512 306.57 544.308 306.399 545.314 306.312C546.404 306.014 547.9 305.452 549.805 304.627C555.519 302.152 560.622 299.071 565.116 295.384C569.692 291.487 573.323 287.217 576.01 282.573C578.696 277.929 580.322 273.048 580.889 267.93C581.393 262.666 580.534 257.469 578.312 252.341C575.075 244.869 569.584 240.027 561.839 237.814C554.24 235.538 544.874 236.811 533.739 241.635C527.439 244.365 521.573 248.298 516.142 253.435C510.648 258.426 506.152 264.114 502.655 270.502C499.241 276.679 497.087 283.355 496.192 290.529C495.445 297.639 496.531 304.564 499.45 311.303C501.799 316.724 505.381 321.176 510.195 324.658C515.093 327.931 520.616 330.236 526.765 331.575C532.913 332.914 539.403 333.234 546.235 332.536C553.067 331.838 559.56 330.157 565.714 327.491C580.511 321.08 593.016 312.791 603.229 302.624C613.524 292.248 622.457 279.329 630.028 263.869C619.597 261.079 610.062 256.944 601.424 251.464C592.785 245.984 586.276 238.19 581.896 228.08C579.357 222.22 578.12 216.753 578.184 211.679C578.331 206.395 579.381 201.589 581.335 197.263C583.289 192.936 585.853 189.215 589.027 186.1C592.349 182.921 595.987 180.474 599.943 178.761C604.924 176.603 610.067 175.419 615.37 175.209C620.757 174.79 626.063 175.188 631.288 176.405C636.45 177.475 641.394 179.248 646.121 181.724C650.995 184.137 655.378 187.023 659.269 190.384C665.302 172.979 671.364 157.65 677.455 144.397C683.546 131.144 689.236 119.978 694.526 110.9C699.962 101.758 704.819 94.6947 709.097 89.7089C713.312 84.5767 716.665 81.4711 719.156 80.392C719.888 80.0746 720.477 80.4287 720.921 81.4543C721.048 81.7474 720.677 83.3003 719.807 86.1131C718.874 88.7795 717.653 92.7887 716.144 98.141C714.781 103.43 713.266 110.176 711.6 118.38C709.871 126.438 708.241 135.932 706.712 146.861C705.344 156.154 704.237 165.247 703.391 174.14C702.692 182.969 702.066 191.767 701.514 200.533C701.107 209.235 700.733 218.011 700.391 226.86C700.131 235.499 699.725 244.201 699.172 252.967C702.249 251.634 705.167 249.935 707.927 247.869C710.832 245.74 713.758 243.255 716.703 240.413C719.272 237.908 721.296 235.552 722.776 233.345C724.193 230.991 725.306 228.942 726.117 227.199C727.074 225.392 727.761 223.964 728.176 222.914C728.527 221.717 728.85 221.056 729.143 220.929C729.875 220.611 730.4 220.819 730.718 221.552C730.908 221.991 730.505 223.471 729.509 225.991C728.659 228.447 727.066 231.399 724.732 234.846C722.334 238.148 719.025 241.756 714.805 245.672C710.732 249.525 705.609 252.963 699.436 255.985L700.123 270.826ZM676.181 220.382C674.277 215.987 671.838 211.562 668.864 207.108C665.973 202.444 663.171 198.786 660.456 196.134C655.991 207.117 651.883 218.119 648.132 229.141C644.38 240.163 639.852 250.999 634.548 261.649C642.732 263.672 651.215 264.173 659.996 263.153C668.776 262.133 676.873 260.54 684.287 258.372C683.926 251.916 683.167 245.545 682.01 239.26C680.79 232.828 678.847 226.536 676.181 220.382ZM685.783 238.931C685.746 213.541 688.09 188.425 692.814 163.583C697.475 138.595 704.707 114.319 714.511 90.7569L713.881 90.5078C711.517 91.8799 708.303 95.7083 704.24 101.993C700.259 108.068 695.866 115.801 691.059 125.191C686.19 134.435 681.178 144.959 676.025 156.762C670.955 168.355 666.18 180.429 661.701 192.984C665.51 196.555 668.691 200.484 671.245 204.772C673.945 208.996 676.247 213.306 678.152 217.701C681.071 224.441 683.405 231.434 685.153 238.682L685.783 238.931ZM591.961 228.418C596.277 238.381 601.947 245.844 608.969 250.806C616.074 255.558 623.467 258.967 631.149 261.034C636.536 250.173 641.252 239.169 645.297 228.02C649.424 216.661 653.698 205.239 658.119 193.753C654.481 190.979 650.719 188.52 646.831 186.376C643.027 184.021 639.047 182.265 634.892 181.108C630.882 179.887 626.729 179.337 622.431 179.458C618.134 179.58 613.714 180.625 609.172 182.593C605.363 184.243 601.839 186.553 598.601 189.521C595.446 192.28 592.975 195.613 591.187 199.52C589.4 203.427 588.442 207.844 588.315 212.771C588.334 217.635 589.549 222.851 591.961 228.418Z" fill="black"/>
</svg>
