<svg width="1156" height="376" viewBox="0 0 1156 376" fill="none" xmlns="http://www.w3.org/2000/svg">
<path d="M50.7427 249.315V366.548L71.7397 371.798V375.297H0V371.798L20.997 366.548V139.081L0 133.832V130.332H71.7397V133.832L50.7427 139.081V242.316H122.482V139.081L101.485 133.832V130.332H173.225V133.832L152.228 139.081V366.548L173.225 371.798V375.297H101.485V371.798L122.482 366.548V249.315H50.7427Z" fill="black"/>
<path d="M749.458 108.951H765.241C768.168 108.951 771.332 108.12 774.734 106.459C778.135 104.719 781.3 101.515 784.227 96.8476C787.549 90.0443 790.199 81.6588 792.177 71.6911C794.155 59.1129 797.596 49.1453 802.501 41.7882C807.484 34.352 815.514 30.6339 826.589 30.6339C845.021 31.7414 854.237 39.3754 854.237 53.5358C853.921 67.4588 847.236 74.6181 834.183 75.0137C821.526 75.0137 814.723 69.5552 813.773 58.6383C813.773 48.0378 817.412 41.6695 824.69 39.5336C827.38 38.9007 828.725 38.2283 828.725 37.5164C828.725 36.4088 827.301 35.8155 824.453 35.7364C815.039 36.0529 808.473 39.8896 804.755 47.2467C801.037 54.6037 798.387 63.0683 796.805 72.6404C794.432 84.8231 791.465 94.0788 787.905 100.407C784.741 104.679 781.814 107.606 779.124 109.188C776.514 110.692 774.575 111.72 773.31 112.274C774.575 113.856 778.452 115.478 784.939 117.139C791.505 118.721 799.732 119.829 809.62 120.461L844.27 181.573C848.383 187.506 853.209 191.342 858.747 193.083C864.284 194.823 870.85 195.693 878.445 195.693V200.321H814.485L767.614 113.816H749.458V162.112C749.458 173.741 751.674 182.245 756.104 187.624C760.613 193.004 769.987 195.693 784.227 195.693V200.321H679.804V195.693C694.043 195.693 703.378 193.004 707.808 187.624C712.317 182.245 714.572 173.741 714.572 162.112V113.816H696.416L649.545 200.321H585.586V195.693C593.18 195.693 599.746 194.823 605.284 193.083C610.821 191.342 615.647 187.506 619.76 181.573L654.41 120.461C664.298 119.829 672.486 118.721 678.973 117.139C685.539 115.478 689.455 113.856 690.721 112.274C689.455 111.72 687.477 110.692 684.787 109.188C682.177 107.606 679.289 104.679 676.125 100.407C672.565 94.0788 669.599 84.8231 667.225 72.6404C665.643 63.0683 662.993 54.6037 659.275 47.2467C655.557 39.8896 648.991 36.0529 639.577 35.7364C636.729 35.8155 635.305 36.4088 635.305 37.5164C635.305 38.2283 636.65 38.9007 639.34 39.5336C646.618 41.6695 650.257 48.0378 650.257 58.6383C649.307 69.5552 642.504 75.0137 629.847 75.0137C616.794 74.6181 610.109 67.4588 609.793 53.5358C609.793 39.3754 619.009 31.7414 637.441 30.6339C648.516 30.6339 656.506 34.352 661.411 41.7882C666.395 49.1453 669.876 59.1129 671.853 71.6911C673.831 81.6588 676.481 90.0443 679.804 96.8476C682.731 101.515 685.895 104.719 689.297 106.459C692.698 108.12 695.863 108.951 698.79 108.951H714.572V72.8778C714.572 61.2488 712.317 52.7447 707.808 47.3653C703.378 41.986 694.043 39.2963 679.804 39.2963V34.6685H784.227V39.2963C769.987 39.2963 760.613 41.986 756.104 47.3653C751.674 52.7447 749.458 61.2488 749.458 72.8778V108.951Z" fill="black"/>
<path d="M536.061 94.7974L545.801 87.2789L557.25 22.4038L550.187 14.8854L550.301 13.8601H610.904L607.088 35.5611H606.518L597.861 16.6511H574.052L567.787 52.3067H582.824L593.019 42.1113H594.044L589.829 65.9767H588.804L582.311 55.0977H567.331L560.61 93.0317H587.95L606.233 74.0647L606.746 74.1216L599.968 95.8226H535.89L536.061 94.7974Z" fill="black"/>
<path d="M213.923 168.729H228.44L207.356 42.5746H190.248L197.679 60.0289L178.669 168.729H194.222L196.469 133.302H209.43L213.923 168.729ZM196.815 129.846L200.617 70.225H202.517L205.801 104.788L208.912 129.846H196.815Z" fill="black"/>
<path d="M853 87.2249H858.02C862.622 83.6164 866.064 77.7268 868.346 69.5559C870.666 61.3851 872.15 52.5091 872.796 42.9281C873.443 33.3056 873.766 22.2314 873.766 9.70548V4.60388L864.182 1.24429V0H921.973V1.24429L913.587 4.60388V87.2249H923V109H922.601L915.412 89.5268H860.645L853.456 109H853V87.2249ZM905.315 87.2249V2.30194H876.048V6.96804C876.01 20.2405 875.744 31.5635 875.249 40.9372C874.755 50.2694 873.462 59.249 871.37 67.8761C869.278 76.5032 866.026 82.9528 861.615 87.2249H905.315Z" fill="black"/>
<path d="M1018.8 35.577C1018.8 36.596 1018.49 39.0584 1017.87 42.9645C1017.4 46.8705 1016.39 51.4558 1014.83 56.7204C1013.28 61.8152 1011.18 67.2496 1008.53 73.0237C1005.89 78.7978 1002.39 84.1473 998.033 89.0723C993.678 93.8274 988.467 97.8183 982.4 101.045C976.333 104.102 969.1 105.63 960.7 105.63C953.078 105.63 947.089 103.507 942.733 99.2618C938.378 95.0162 936.2 89.9214 936.2 83.9775C936.2 78.3732 937.367 72.8539 939.7 67.4194C942.189 61.985 945.456 56.8053 949.5 51.8803C953.544 46.9554 958.133 42.455 963.267 38.3791C968.556 34.1335 974.078 30.5671 979.833 27.6801C985.589 24.6232 991.344 22.2457 997.1 20.5474C1003.01 18.8491 1008.53 18 1013.67 18C1023.62 18 1031.56 20.7172 1037.47 26.1517C1043.38 31.4163 1046.33 40.9265 1046.33 54.6825C1046.33 60.1169 1045.32 65.5513 1043.3 70.9858C1041.28 76.4202 1038.79 81.8547 1035.83 87.2891C1032.88 92.7235 1029.61 98.0731 1026.03 103.338C1022.46 108.432 1019.19 113.442 1016.23 118.367C1013.28 123.122 1010.79 127.623 1008.77 131.868C1006.74 136.114 1005.73 140.02 1005.73 143.586C1005.73 146.134 1006.43 147.917 1007.83 148.936C1009.23 149.955 1011.02 150.464 1013.2 150.464C1015.69 150.464 1019.27 149.191 1023.93 146.643C1028.76 144.096 1033.97 140.615 1039.57 136.199C1045.32 131.784 1051.08 126.604 1056.83 120.66C1062.74 114.546 1067.96 107.923 1072.47 100.79C1084.13 82.6189 1094.71 68.0987 1104.2 57.2299C1113.84 46.1911 1122.17 37.7848 1129.17 32.0107C1136.17 26.2366 1141.77 22.5004 1145.97 20.8021C1150.32 18.934 1153.12 18 1154.37 18C1155.46 18 1156 18.5095 1156 19.5284C1156 20.3776 1155.22 21.1418 1153.67 21.8211C1152.11 22.3306 1150.01 23.1797 1147.37 24.3685C1144.72 25.5573 1141.61 27.3404 1138.03 29.718C1134.46 31.9257 1130.57 35.0675 1126.37 39.1434C1122.32 43.2192 1118.12 48.4838 1113.77 54.9372C1109.41 61.2208 1105.06 69.0328 1100.7 78.3732C1098.68 82.7887 1096.19 88.2231 1093.23 94.6765C1090.28 100.96 1087.09 107.668 1083.67 114.801C1080.24 121.934 1076.59 129.236 1072.7 136.709C1068.97 144.181 1065.16 151.314 1061.27 158.107C1057.53 164.9 1053.88 171.098 1050.3 176.703C1046.72 182.307 1043.38 186.807 1040.27 190.204C1027.67 203.96 1013.04 214.489 996.4 221.791C979.911 229.264 962.722 233 944.833 233C937.522 233 930.211 231.896 922.9 229.688C915.589 227.65 908.978 224.424 903.067 220.008C897.156 215.593 892.333 210.073 888.6 203.45C884.867 196.827 883 189.015 883 180.014C883 171.693 884.944 164.051 888.833 157.088C892.878 149.955 897.933 143.841 904 138.746C910.222 133.652 916.989 129.661 924.3 126.774C931.611 123.887 938.689 122.443 945.533 122.443C952.378 122.443 958.6 123.462 964.2 125.5C969.956 127.538 974.778 130.34 978.667 133.906C982.711 137.473 985.822 141.549 988 146.134C990.178 150.719 991.267 155.559 991.267 160.654C991.267 167.617 989.789 173.816 986.833 179.25C983.878 184.684 980.067 189.27 975.4 193.006C970.733 196.572 965.444 199.289 959.533 201.158C953.778 203.026 948.022 203.96 942.267 203.96C940.244 203.96 938.144 203.79 935.967 203.45C933.789 203.111 931.767 202.686 929.9 202.177C928.033 201.667 926.478 201.158 925.233 200.648C924.144 200.139 923.6 199.629 923.6 199.12C923.6 198.271 923.989 197.846 924.767 197.846C925.233 197.846 925.778 198.016 926.4 198.355C927.178 198.695 928.267 199.035 929.667 199.374C931.222 199.714 933.167 200.054 935.5 200.393C937.989 200.733 941.1 200.903 944.833 200.903C949.656 200.903 954.633 199.969 959.767 198.101C964.9 196.233 969.489 193.685 973.533 190.459C977.578 187.062 980.922 182.986 983.567 178.231C986.211 173.476 987.533 168.126 987.533 162.182C987.533 156.408 986.444 151.568 984.267 147.662C982.244 143.586 979.444 140.36 975.867 137.982C972.444 135.605 968.478 133.906 963.967 132.887C959.611 131.699 955.178 131.104 950.667 131.104C943.356 131.104 935.967 132.463 928.5 135.18C921.189 137.897 914.578 141.718 908.667 146.643C902.911 151.568 898.167 157.597 894.433 164.73C890.856 171.863 889.067 179.759 889.067 188.421C889.067 196.063 890.933 202.516 894.667 207.781C898.556 213.045 903.3 217.291 908.9 220.518C914.656 223.914 920.722 226.292 927.1 227.65C933.478 229.179 939.233 229.943 944.367 229.943C956.811 229.943 967.933 228.245 977.733 224.848C987.533 221.622 996.322 217.036 1004.1 211.092C1012.03 205.318 1019.11 198.525 1025.33 190.713C1031.71 182.731 1037.54 174.07 1042.83 164.73C1048.28 155.389 1053.41 145.624 1058.23 135.435C1063.06 125.245 1067.96 114.971 1072.93 104.611C1070.44 108.517 1066.71 113.273 1061.73 118.877C1056.76 124.311 1051.31 129.661 1045.4 134.925C1039.64 140.02 1033.81 144.436 1027.9 148.172C1022.14 151.738 1017.09 153.521 1012.73 153.521C1007.76 153.521 1004.33 151.993 1002.47 148.936C1000.6 145.709 999.667 141.549 999.667 136.454C999.667 130.34 1000.68 124.311 1002.7 118.367C1004.72 112.423 1007.21 106.734 1010.17 101.3C1013.12 95.6955 1016.39 90.346 1019.97 85.2512C1023.54 79.9866 1026.81 74.8918 1029.77 69.9668C1032.72 64.872 1035.21 60.032 1037.23 55.4467C1039.26 50.8614 1040.27 46.361 1040.27 41.9455C1040.27 38.2093 1039.49 34.9826 1037.93 32.2654C1036.38 29.5482 1034.36 27.4253 1031.87 25.8969C1029.53 24.1986 1026.81 23.0099 1023.7 22.3306C1020.59 21.4814 1017.56 21.0569 1014.6 21.0569C1007.91 21.0569 1000.21 22.6702 991.5 25.8969C982.789 29.1236 974.544 33.5391 966.767 39.1434C958.989 44.7476 952.378 51.3709 946.933 59.013C941.644 66.6552 939 74.8069 939 83.468C939 88.9025 940.867 93.3179 944.6 96.7144C948.333 99.9411 952.611 101.555 957.433 101.555C963.967 101.555 970.967 99.2618 978.433 94.6765C985.9 89.9214 993.056 83.1284 999.9 74.2974C1003.79 69.3724 1006.74 64.4475 1008.77 59.5225C1010.79 54.5975 1012.27 50.267 1013.2 46.5308C1014.29 42.6248 1014.99 39.483 1015.3 37.1054C1015.77 34.7279 1016.39 33.5391 1017.17 33.5391C1018.26 33.5391 1018.8 34.2184 1018.8 35.577Z" fill="black"/>
<path d="M330.353 294.73C334.319 294.497 338.518 294.614 342.951 295.08C347.617 295.314 353.449 295.43 360.448 295.43C381.678 295.43 402.092 292.281 421.689 285.982C441.52 279.682 459.017 270.584 474.182 258.685C489.58 246.554 501.828 231.856 510.927 214.592C520.259 197.328 524.925 177.614 524.925 155.45C524.925 143.552 523.058 131.654 519.325 119.755C515.593 107.624 509.41 97.1253 500.778 88.2599C493.546 96.4254 487.013 105.057 481.181 114.156C475.582 123.022 470.099 132.12 464.733 141.452C459.601 150.784 454.468 160.35 449.335 170.148C444.436 179.713 439.187 189.279 433.588 198.844C428.455 207.709 422.156 217.158 414.69 227.19C407.458 236.989 399.409 246.437 390.544 255.536C381.678 264.401 372.113 272.333 361.848 279.332C351.583 286.331 341.084 291.231 330.353 294.03V294.73ZM249.864 288.081C249.864 284.115 254.763 282.132 264.562 282.132C270.628 282.132 276.227 282.599 281.36 283.532C286.725 284.465 291.858 285.515 296.757 286.681C301.657 287.615 306.439 288.548 311.105 289.481C316.005 290.181 321.021 290.531 326.153 290.531C334.552 290.531 342.717 287.498 350.65 281.432C358.582 275.133 366.164 267.201 373.396 257.636C380.862 248.07 387.978 237.455 394.743 225.79C401.742 213.892 408.275 202.344 414.34 191.145C421.806 177.614 428.922 165.482 435.687 154.75C442.686 143.785 449.452 133.987 455.984 125.355C462.517 116.489 469.049 108.674 475.582 101.908C482.114 94.909 488.763 88.6099 495.529 83.0107C491.563 78.8113 486.663 75.1951 480.831 72.1622C475.232 68.896 469.049 66.2131 462.284 64.1134C455.751 61.7804 448.986 60.1473 441.987 59.2141C435.221 58.0476 428.572 57.4643 422.039 57.4643C417.373 57.4643 412.474 57.6976 407.341 58.1642C402.209 58.3975 397.543 58.9808 393.344 59.914C399.876 66.2131 404.659 74.2619 407.691 84.0605C410.724 93.8591 412.241 102.958 412.241 111.357C412.241 123.488 409.791 135.853 404.892 148.451C399.993 161.049 393.227 172.598 384.595 183.096C376.196 193.361 366.281 201.877 354.849 208.643C343.417 215.175 331.286 218.441 318.454 218.441C311.455 218.441 304.923 217.275 298.857 214.942C292.791 212.609 287.542 209.343 283.109 205.143C278.91 200.71 275.527 195.578 272.961 189.745C270.628 183.68 269.461 177.031 269.461 169.798C269.461 155.334 272.961 141.802 279.96 129.204C286.959 116.606 295.941 105.407 306.906 95.6089C318.104 85.8103 330.469 77.6448 344.001 71.1124C357.532 64.3467 370.947 59.6807 384.245 57.1144C378.412 53.1483 371.763 50.232 364.298 48.3657C357.065 46.4993 349.833 45.566 342.601 45.566C324.403 45.566 308.306 49.9987 294.308 58.8641C280.31 67.7295 268.061 79.3945 257.563 93.8591C251.031 102.958 246.131 112.056 242.865 121.155C239.599 130.021 237.149 138.069 235.516 145.302C233.883 152.534 232.717 158.367 232.017 162.799C231.317 167.232 230.5 169.448 229.567 169.448C228.634 169.448 228.167 168.632 228.167 166.999C228.167 166.299 228.401 163.732 228.867 159.3C229.334 154.867 230.267 149.384 231.667 142.852C233.3 136.32 235.516 129.204 238.316 121.505C241.115 113.806 244.848 106.341 249.514 99.1084C261.879 79.7445 276.227 65.2799 292.558 55.7146C308.889 46.1493 325.803 41.3666 343.301 41.3666C350.066 41.3666 357.649 42.5331 366.047 44.8661C374.68 47.1991 382.378 50.9319 389.144 56.0645C395.443 55.1313 401.159 54.4314 406.292 53.9648C411.658 53.4982 416.09 53.265 419.59 53.265C426.589 53.265 433.704 53.8482 440.937 55.0147C448.402 55.9479 455.635 57.581 462.634 59.914C469.633 62.247 476.165 65.1632 482.231 68.6627C488.53 71.9289 494.012 75.7784 498.678 80.2111C503.111 76.7116 507.777 73.3287 512.676 70.0625C517.809 66.7963 522.475 63.9967 526.674 61.6637C531.107 59.0974 534.84 57.1144 537.873 55.7146C540.906 54.0815 542.539 53.265 542.772 53.265C543.939 53.265 544.522 54.3148 544.522 56.4145C544.522 56.8811 543.239 57.6976 540.672 58.8641C538.339 60.0306 535.19 61.7804 531.224 64.1134C527.491 66.4464 523.175 69.3626 518.276 72.8621C513.376 76.1283 508.477 80.3277 503.578 85.4603C512.21 94.7923 518.625 105.407 522.825 117.306C527.024 128.971 529.124 141.102 529.124 153.701C529.124 178.197 524.108 199.544 514.076 217.741C504.278 235.939 491.096 251.103 474.532 263.235C458.201 275.366 439.42 284.465 418.19 290.531C397.193 296.597 375.613 299.63 353.449 299.63C348.783 299.63 344.001 299.28 339.101 298.58C334.435 297.88 329.769 297.53 325.103 297.53C319.037 297.53 312.972 297.88 306.906 298.58C301.073 299.28 295.124 299.63 289.058 299.63C262.929 299.63 249.864 295.78 249.864 288.081ZM286.959 184.846C286.959 195.578 289.992 203.16 296.057 207.593C302.123 212.025 310.055 214.242 319.854 214.242C331.986 214.242 343.301 211.092 353.799 204.793C364.531 198.494 373.863 190.445 381.795 180.647C389.961 170.615 396.376 159.65 401.042 147.751C405.708 135.853 408.041 124.305 408.041 113.106C408.041 103.774 406.525 94.4424 403.492 85.1104C400.459 75.5451 395.56 67.4962 388.794 60.9638C376.429 64.6966 364.064 70.5291 351.699 78.4613C339.568 86.1602 328.719 95.4922 319.154 106.457C309.589 117.189 301.773 129.204 295.708 142.502C289.875 155.8 286.959 169.915 286.959 184.846Z" fill="black"/>
</svg>
