<svg width="632" height="233" viewBox="0 0 632 233" fill="none" xmlns="http://www.w3.org/2000/svg">
<path d="M25.2875 94.9259C32.653 94.9259 38.704 97.1485 43.4404 101.594C48.1768 106.019 50.545 111.198 50.545 117.132C50.545 123.249 48.1266 128.479 43.2899 132.822C38.4531 137.145 32.4523 139.307 25.2875 139.307C18.3034 139.307 12.3427 137.145 7.40564 132.822C2.46855 128.479 0 123.249 0 117.132C0 110.994 2.41837 105.764 7.25512 101.441C12.0919 97.0975 18.1027 94.9259 25.2875 94.9259ZM25.3779 96.1799C20.9626 96.1799 17.4404 98.1273 14.8113 102.022C12.1822 105.896 10.8676 110.933 10.8676 117.132C10.8676 123.31 12.2323 128.347 14.9618 132.241C17.6912 136.116 21.1633 138.053 25.3779 138.053C29.7731 138.053 33.2852 136.116 35.9143 132.241C38.5434 128.347 39.858 123.31 39.858 117.132C39.858 110.933 38.4933 105.896 35.7638 102.022C33.0344 98.1273 29.5724 96.1799 25.3779 96.1799Z" fill="black"/>
<path d="M510.202 155.57V211.353H535.769C547.039 211.353 555.644 208.918 561.585 204.048C567.525 199.178 570.495 192.095 570.495 182.797C570.495 174.164 567.247 167.468 560.752 162.709C554.312 157.949 544.263 155.57 530.605 155.57H510.202ZM510.202 101.447V152.166H531.438C545.706 152.166 555.117 149.593 559.669 144.446C564.222 139.244 566.498 132.935 566.498 125.52C566.498 118.049 564.472 112.183 560.419 107.921C556.421 103.605 548.26 101.447 535.935 101.447H510.202ZM550.259 98.6242C564.305 98.6242 575.076 101.391 582.571 106.925C590.066 112.404 593.813 119.1 593.813 127.014C593.813 134.762 589.205 140.988 579.989 145.691C570.773 150.395 563.195 153.052 557.254 153.661C569.857 155.764 579.989 159.333 587.65 164.369C595.312 169.35 599.143 176.24 599.143 185.039C599.143 194.723 594.229 202.056 584.403 207.037C574.631 212.017 563.805 214.508 551.924 214.508H461.069V211.27C471.062 211.27 477.613 209.389 480.722 205.626C483.887 201.862 485.469 195.913 485.469 187.778V125.354C485.469 117.219 483.887 111.27 480.722 107.506C477.613 103.743 471.062 101.862 461.069 101.862V98.6242H550.259Z" fill="black"/>
<path d="M408.177 155.857L416.21 150.694L439.952 106.95L436.77 100.566L436.89 99.8569H450.451L460.393 150.615L466 155.857L465.841 156.566H441.264L441.384 155.857L448.582 150.655L446.394 138.438H424.92L418.318 150.655L425.516 155.857L425.397 156.566H408.058L408.177 155.857ZM446.036 136.507L440.986 108.763L425.954 136.507H446.036Z" fill="black"/>
<path d="M104.485 89.9847C104.485 84.8089 100.078 82.6296 89.6091 82.6296C81.3445 82.6296 79.6916 88.6226 79.6916 98.4294V191.866C79.6916 211.48 85.4768 214.476 91.813 214.476C98.1492 214.476 100.904 204.124 101.455 186.69L102.281 154.546H106.138L106.965 187.507C107.516 213.386 99.5266 233 82.9974 233C68.1211 233 60.4075 224.555 60.4075 201.128V101.154C60.4075 74.1849 73.3554 64.1058 88.5071 64.1058C102.832 64.1058 109.72 72.5504 109.72 89.7123C109.72 96.7949 108.893 115.046 104.21 139.291H83.2729C99.8021 107.419 104.485 97.0674 104.485 89.9847Z" fill="black"/>
<path d="M613.315 72.2966H613.075V40.6827H604.074V129.445H614.875C625.195 129.445 631.196 125.189 631.196 114.124V88.7114C631.196 76.7955 623.035 72.2966 613.315 72.2966ZM622.195 111.084C622.195 118.988 620.035 121.176 614.035 121.176H613.075V80.5648H614.875C620.755 80.5648 622.195 83.2398 622.195 87.4955V111.084Z" fill="black"/>
<path d="M322.536 30.1571C322.536 30.6474 321.8 32.282 320.33 35.0607C319.023 37.8394 317.062 41.1902 314.447 45.113C311.833 49.0359 308.647 53.204 304.889 57.6172C301.131 61.867 296.882 65.8716 292.144 69.631C287.405 73.227 282.095 76.2508 276.213 78.7026C270.494 81.1544 264.366 82.3803 257.83 82.3803C246.556 82.3803 237.733 79.8468 231.36 74.7798C225.151 69.5493 222.047 63.0929 222.047 55.4106C222.047 51.9781 222.7 48.3821 224.007 44.6227C225.314 40.8633 227.439 37.1038 230.38 33.3444C233.321 29.585 237.161 26.0708 241.899 22.8017C246.638 19.5326 252.438 16.6722 259.301 14.2204C269.922 10.6244 280.134 8.09091 289.938 6.61984C299.742 4.98531 309.3 4.00459 318.614 3.67769C328.091 3.35078 337.323 3.35078 346.31 3.67769C355.46 4.00459 364.692 4.16804 374.006 4.16804H450.23C461.831 4.00459 471.063 3.26905 477.926 1.96142C484.952 0.653807 489.772 0 492.387 0C492.877 0 493.122 0.408629 493.122 1.22589C493.122 1.71625 492.305 2.77869 490.671 4.41322C489.2 6.04776 486.913 7.76401 483.808 9.56199C480.704 11.36 476.7 12.9945 471.798 14.4656C466.897 15.9367 461.178 16.6722 454.642 16.6722C449.74 16.6722 443.776 16.5088 436.75 16.1818C429.724 15.6915 422.044 15.2011 413.711 14.7108C405.378 14.2204 396.554 13.6483 387.241 12.9945C378.09 12.3407 368.859 11.7686 359.545 11.2782C348.761 10.7879 338.222 10.5427 327.928 10.5427C317.634 10.3793 308.32 10.2975 299.987 10.2975C288.876 10.2975 278.745 11.6052 269.595 14.2204C260.608 16.6722 252.847 20.023 246.311 24.2728C239.938 28.3591 234.955 33.0175 231.36 38.248C227.765 43.4785 225.968 48.8725 225.968 54.4299C225.968 60.8045 228.174 65.8716 232.586 69.631C236.997 73.227 242.798 75.0249 249.987 75.0249C257.667 75.0249 264.693 73.8808 271.066 71.5924C277.438 69.3041 283.239 66.4437 288.467 63.0111C293.696 59.5786 298.271 55.9009 302.193 51.9781C306.278 48.0552 309.709 44.3775 312.487 40.945C315.264 37.5125 317.307 34.652 318.614 32.3637C320.085 30.0754 320.902 28.9312 321.065 28.9312C322.045 28.9312 322.536 29.3398 322.536 30.1571ZM191.41 76.9864C183.73 76.9864 176.05 78.294 168.371 80.9093C160.854 83.5245 153.992 87.2022 147.783 91.9423C141.574 96.519 136.508 101.995 132.587 108.369C128.829 114.581 126.95 121.446 126.95 128.964C126.95 135.339 128.502 141.223 131.606 146.617C134.711 151.848 139.041 156.343 144.596 160.102C150.152 163.862 156.77 166.804 164.449 168.929C172.129 171.054 180.544 172.116 189.694 172.116C205.053 172.116 218.288 169.991 229.399 165.741C240.51 161.328 250.232 155.607 258.566 148.579C266.899 141.55 274.252 133.459 280.624 124.306C286.997 115.153 293.124 105.754 299.006 96.1104C304.889 86.3032 310.934 76.6595 317.143 67.1792C323.353 57.6989 330.542 49.0359 338.712 41.1902C342.143 37.9211 345.575 34.979 349.006 32.3637C352.437 29.7485 355.623 27.5418 358.565 25.7438C361.506 23.9459 363.957 22.5565 365.917 21.5758C368.042 20.5951 369.43 20.1047 370.084 20.1047C370.738 20.1047 371.064 20.4316 371.064 21.0854C371.064 21.9027 370.329 22.6382 368.859 23.2921C367.551 23.9459 365.836 24.8449 363.712 25.989C361.751 26.9697 359.545 28.2774 357.094 29.9119C354.806 31.5464 352.601 33.6713 350.476 36.2866C346.228 41.5171 340.999 49.1176 334.79 59.0883C328.745 69.0589 321.719 81.7265 313.712 97.0911C307.34 109.187 299.905 120.056 291.408 129.7C282.912 139.344 273.353 147.516 262.732 154.218C252.275 160.92 240.837 166.068 228.419 169.664C216.164 173.26 203.092 175.058 189.204 175.058C179.89 175.058 171.148 173.914 162.979 171.626C154.809 169.337 147.701 166.068 141.655 161.819C135.61 157.405 130.789 152.093 127.195 145.882C123.763 139.671 122.048 132.56 122.048 124.551C122.048 116.869 123.845 109.677 127.44 102.975C131.198 96.1104 136.1 90.1444 142.145 85.0773C148.355 80.0103 155.381 76.0057 163.224 73.0635C171.067 70.1214 179.237 68.6503 187.733 68.6503C193.125 68.6503 198.599 69.3858 204.155 70.8569C209.873 72.1645 215.02 74.3711 219.596 77.4767C224.334 80.4189 228.174 84.26 231.115 89.0002C234.22 93.5769 235.772 99.0526 235.772 105.427C235.772 112.129 234.22 118.095 231.115 123.325C228.011 128.392 223.926 132.724 218.86 136.32C213.795 139.916 208.158 142.613 201.949 144.411C195.74 146.209 189.531 147.108 183.321 147.108C179.4 147.108 175.56 146.699 171.802 145.882C168.207 145.065 164.939 144.166 161.998 143.185C159.22 142.041 157.015 140.978 155.381 139.998C153.747 139.017 152.93 138.281 152.93 137.791C152.93 136.81 153.175 136.32 153.665 136.32C154.319 136.32 155.381 136.728 156.851 137.546C158.322 138.363 160.283 139.262 162.733 140.243C165.184 141.223 168.126 142.122 171.557 142.94C175.152 143.757 179.4 144.166 184.302 144.166C189.857 144.166 195.413 143.348 200.968 141.714C206.687 140.079 211.834 137.709 216.409 134.604C220.984 131.335 224.661 127.33 227.439 122.59C230.38 117.686 231.85 112.129 231.85 105.918C231.85 97.2546 228.419 90.3078 221.556 85.0773C214.857 79.6834 204.808 76.9864 191.41 76.9864ZM293.369 175.058C292.879 175.058 292.307 174.486 291.654 173.342C291.163 172.198 291.245 171.462 291.899 171.135C295.984 168.193 300.885 162.881 306.604 155.199C312.487 147.353 319.676 135.666 328.173 120.138C334.545 108.369 340.101 98.3987 344.839 90.2261C349.741 81.89 353.908 74.9432 357.339 69.3858C360.934 63.8284 363.875 59.4152 366.163 56.1461C368.613 52.7136 370.656 50.0984 372.29 48.3004C374.087 46.3389 375.476 44.8679 376.456 43.8871C377.6 42.9064 378.662 42.0074 379.643 41.1902C382.094 38.9018 384.953 36.5318 388.221 34.08C391.489 31.6282 394.594 29.3398 397.535 27.2149C400.639 25.09 403.417 23.3738 405.868 22.0662C408.482 20.7585 410.28 20.1047 411.26 20.1047C411.75 20.1047 411.995 20.4316 411.995 21.0854C411.995 21.7393 411.26 22.4748 409.789 23.2921C408.482 23.9459 406.767 24.8449 404.642 25.989C402.682 27.1332 400.476 28.5226 398.025 30.1571C395.737 31.7916 393.531 33.8348 391.407 36.2866C389.12 39.0653 386.26 43.4785 382.829 49.5263C379.398 55.4106 375.803 61.7852 372.045 68.6503C368.287 75.5153 364.61 82.2986 361.015 89.0002C357.421 95.5383 354.398 100.851 351.947 104.937C349.169 109.514 345.82 114.499 341.898 119.893C338.14 125.123 334.218 130.354 330.133 135.584C326.049 140.651 321.964 145.637 317.879 150.54C313.794 155.28 310.036 159.448 306.604 163.044C303.173 166.64 300.232 169.583 297.781 171.871C295.493 173.996 294.023 175.058 293.369 175.058ZM411.26 135.584C412.404 135.584 412.976 135.993 412.976 136.81C412.976 136.974 412.567 137.546 411.75 138.526C410.933 139.507 409.789 140.815 408.319 142.449C407.012 143.92 405.541 145.637 403.907 147.598C402.273 149.396 400.721 151.112 399.25 152.747C397.453 154.708 395.165 156.915 392.388 159.367C389.773 161.819 386.996 164.107 384.054 166.232C381.277 168.357 378.499 170.155 375.721 171.626C372.943 172.933 370.574 173.587 368.613 173.587C364.855 173.587 362.159 172.361 360.525 169.909C358.891 167.294 358.074 163.698 358.074 159.122C358.074 153.074 359.055 147.108 361.015 141.223C362.976 135.176 365.999 128.229 370.084 120.383C376.62 107.797 382.829 96.9277 388.711 87.7743C394.757 78.6209 400.149 70.9386 404.888 64.7274C409.789 58.5162 413.874 53.6943 417.142 50.2618C420.574 46.6658 423.025 44.1323 424.495 42.6612C426.783 40.2094 429.07 37.6759 431.358 35.0607C433.809 32.4454 436.015 30.0754 437.975 27.9505C440.1 25.6621 441.897 23.7824 443.367 22.3113C444.838 20.8403 445.737 20.1047 446.064 20.1047C446.717 20.1047 447.044 20.4316 447.044 21.0854C447.044 22.3931 445.9 24.1093 443.613 26.2342C441.488 28.3591 438.547 31.5464 434.789 35.7962C432.338 38.7384 429.397 42.9064 425.966 48.3004C422.698 53.5309 419.266 59.2517 415.672 65.4629C412.077 71.6742 408.564 77.8854 405.133 84.0966C401.701 90.3078 398.678 95.7018 396.064 100.278C390.182 110.413 385.117 118.994 380.868 126.022C376.62 133.051 373.189 139.099 370.574 144.166C367.96 149.069 365.999 153.156 364.692 156.425C363.548 159.53 362.976 162.145 362.976 164.27C362.976 166.068 363.385 167.621 364.202 168.929C365.182 170.073 366.571 170.645 368.368 170.645C371.636 170.645 375.313 169.174 379.398 166.232C383.483 163.29 387.976 159.53 392.878 154.953C399.087 149.233 403.499 144.574 406.113 140.978C408.891 137.382 410.606 135.584 411.26 135.584Z" fill="black"/>
</svg>
