<svg width="518" height="439" viewBox="0 0 518 439" fill="none" xmlns="http://www.w3.org/2000/svg">
<path d="M31.4667 36.5067L24.32 37.1467V36.08C29.9733 33.2 34.24 29.1467 34.24 20.9333V13.5733C34.24 3.86667 29.3333 0.133329 20.8 0.133329H11.2V78H20.8C30.2933 78 35.84 74.2667 35.84 64.56V52.2933C35.84 44.9333 34.6667 38.8533 31.4667 36.5067ZM20.0533 7.38666C24.64 7.38666 26.24 9.30667 26.24 16.24V27.3333C26.24 31.0667 25.28 33.6267 21.2267 35.44L19.2 36.2933V7.38666H20.0533ZM27.84 61.8933C27.84 68.8267 25.8133 70.7467 20.0533 70.7467H19.2V39.7067C20.0533 39.0667 21.0133 38.64 22.1867 38.64C25.92 38.64 27.84 40.88 27.84 45.68V61.8933Z" fill="black"/>
<path d="M457 245.887L465.38 240.289V103.817L457 98.1126V96H482.084V98.1126L473.704 103.817V240.183L482.084 245.887V248H457V245.887ZM477.124 170.151L504.318 104.662L492.061 98.1126V96H515.777V98.1126L507.51 103.817L483.623 161.384L510.076 240.183L518 244.831V248H502.893L477.124 170.151Z" fill="black"/>
<path d="M422.539 218.125C420.245 218.927 417.549 219.5 414.451 219.844C411.469 220.073 408.371 220.13 405.159 220.016C401.947 219.786 398.85 219.328 395.867 218.641C392.884 217.839 390.246 216.75 387.951 215.375C385.083 213.656 382.674 211.938 380.724 210.219C378.889 208.5 377.34 206.609 376.078 204.547C374.931 202.484 374.07 200.193 373.497 197.672C373.038 195.036 372.808 192.057 372.808 188.734C372.808 184.151 373.784 180.026 375.734 176.359C377.799 172.578 380.552 169.427 383.994 166.906C387.435 164.385 391.393 162.437 395.867 161.062C400.341 159.687 405.044 159 409.977 159C414.566 159 418.639 159.745 422.195 161.234C425.751 162.609 428.734 164.615 431.143 167.25C433.667 169.771 435.56 172.807 436.821 176.359C438.198 179.797 438.886 183.635 438.886 187.875C438.886 191.427 438.542 195.208 437.854 199.219C437.28 203.115 436.305 206.781 434.929 210.219C437.108 209.99 439.861 209.245 443.188 207.984C446.63 206.609 450.186 204.661 453.857 202.141L455.062 203.688C449.785 212.74 445.827 221.677 443.188 230.5C440.665 239.208 438.772 247.516 437.51 255.422C437.28 257.255 437.108 259.375 436.994 261.781C436.879 264.188 436.879 266.479 436.994 268.656C437.223 270.833 437.567 272.724 438.026 274.328C438.6 275.818 439.345 276.562 440.263 276.562C442.902 276.562 445.311 275.589 447.49 273.641C449.785 271.578 452.251 269.229 454.89 266.594C456.037 265.448 457.299 264.188 458.675 262.812C460.052 261.323 461.314 259.948 462.461 258.688C463.723 257.312 464.755 256.167 465.558 255.25C466.476 254.333 467.05 253.703 467.279 253.359C467.509 253.13 467.853 253.016 468.312 253.016C468.771 253.016 469 253.359 469 254.047C469 254.276 468.312 255.135 466.935 256.625C465.558 258.115 464.182 259.604 462.805 261.094C460.626 263.385 458.503 265.62 456.438 267.797C454.373 269.859 452.366 271.75 450.416 273.469C448.465 275.073 446.515 276.391 444.565 277.422C442.729 278.453 440.837 278.969 438.886 278.969C436.821 278.969 434.929 278.453 433.208 277.422C431.487 276.391 430.11 274.958 429.078 273.125C428.045 271.292 427.357 269.172 427.013 266.766C426.784 264.245 426.956 261.495 427.529 258.516C428.562 253.818 429.881 249.177 431.487 244.594C433.093 240.01 434.871 235.542 436.821 231.188C438.886 226.833 440.951 222.651 443.016 218.641C445.196 214.63 447.318 210.849 449.383 207.297C448.236 208.099 447.146 208.844 446.114 209.531C445.081 210.104 443.934 210.734 442.672 211.422C441.525 212.109 440.148 212.854 438.542 213.656C436.936 214.458 434.986 215.375 432.692 216.406C429.365 224.198 425.292 232.047 420.474 239.953C415.656 247.859 409.346 255.135 401.545 261.781C396.727 265.792 392.081 269 387.607 271.406C383.248 273.812 379.003 275.646 374.873 276.906C370.858 278.167 367.015 278.969 363.344 279.312C359.673 279.771 356.232 280 353.019 280C347.857 280 342.695 279.312 337.532 277.938C332.485 276.562 327.896 274.443 323.766 271.578C319.636 268.599 316.31 264.818 313.786 260.234C311.262 255.536 310 249.865 310 243.219C310 237.49 311.09 232.333 313.269 227.75C315.564 223.052 318.489 219.099 322.045 215.891C325.716 212.568 329.904 210.047 334.607 208.328C339.311 206.609 344.129 205.75 349.062 205.75C353.88 205.75 358.239 206.438 362.14 207.812C366.155 209.188 369.539 211.021 372.292 213.312C375.16 215.49 377.397 218.125 379.003 221.219C380.609 224.198 381.412 227.349 381.412 230.672C381.412 235.828 380.265 240.297 377.971 244.078C375.676 247.859 372.808 250.953 369.367 253.359C365.925 255.766 362.14 257.542 358.01 258.688C353.88 259.833 349.979 260.406 346.308 260.406C343.326 260.406 340.458 260.177 337.705 259.719C335.066 259.146 333.116 258.458 331.854 257.656C331.51 257.427 331.395 257.141 331.51 256.797C331.739 256.339 332.026 256.167 332.37 256.281C334.55 256.854 336.557 257.37 338.393 257.828C340.228 258.172 343.154 258.344 347.169 258.344C351.069 258.344 354.855 257.714 358.526 256.453C362.312 255.078 365.696 253.245 368.679 250.953C371.661 248.661 374.07 245.911 375.906 242.703C377.741 239.38 378.659 235.828 378.659 232.047C378.659 228.724 377.971 225.859 376.594 223.453C375.218 220.932 373.325 218.87 370.916 217.266C368.621 215.547 365.868 214.286 362.656 213.484C359.558 212.682 356.174 212.281 352.503 212.281C345.391 212.281 339.483 213.484 334.779 215.891C330.19 218.297 326.118 221.734 322.562 226.203C319.694 229.87 317.686 233.594 316.539 237.375C315.392 241.042 314.818 245.052 314.818 249.406C314.818 253.302 315.736 256.969 317.571 260.406C319.407 263.844 321.873 266.88 324.971 269.516C328.068 272.036 331.624 274.099 335.64 275.703C339.655 277.193 343.842 277.938 348.201 277.938C349.578 277.938 351.758 277.88 354.74 277.766C357.838 277.651 361.394 277.078 365.409 276.047C369.539 275.016 373.898 273.411 378.487 271.234C383.19 269.057 387.837 265.906 392.425 261.781C396.555 258 400.054 254.448 402.922 251.125C405.79 247.802 408.314 244.422 410.494 240.984C412.673 237.547 414.681 233.995 416.516 230.328C418.466 226.547 420.474 222.479 422.539 218.125ZM425.292 211.594C426.898 207.354 428.16 203 429.078 198.531C430.11 194.062 430.627 189.708 430.627 185.469C430.627 182.49 430.282 179.568 429.594 176.703C428.906 173.839 427.759 171.26 426.153 168.969C424.547 166.677 422.424 164.844 419.786 163.469C417.262 161.979 414.107 161.234 410.321 161.234C407.109 161.234 403.897 161.865 400.685 163.125C397.473 164.271 394.548 165.99 391.909 168.281C389.385 170.458 387.263 173.208 385.542 176.531C383.936 179.74 383.133 183.406 383.133 187.531C383.133 192.115 383.994 196.068 385.714 199.391C387.435 202.599 389.729 205.234 392.597 207.297C395.465 209.359 398.735 210.849 402.406 211.766C406.192 212.682 410.092 213.141 414.107 213.141C415.828 213.141 417.549 213.026 419.269 212.797C421.105 212.568 423.113 212.167 425.292 211.594Z" fill="black"/>
<path d="M150.709 0C182.246 0 206.248 8.55456 222.714 25.6637C239.32 42.7728 250.205 51.3274 255.368 51.3274C264.438 51.3274 276.718 36.533 292.208 6.94429H299.953L305.814 208.933H299.325C284.533 139.691 264.299 89.4706 238.623 58.2717C213.086 26.8714 186.363 11.1713 158.454 11.1713C128.172 11.1713 106.752 29.3874 94.1931 65.8198C81.7736 102.051 75.5638 154.485 75.5638 223.123C75.5638 304.039 84.4947 358.185 102.357 385.559C120.358 412.934 143.104 426.621 170.594 426.621C206.318 426.621 235.343 411.827 257.671 382.238C280.137 352.649 294.72 318.934 301.418 281.093H310C304 320.544 288.998 356.776 264.997 389.786C240.995 422.595 208.341 439 167.036 439C120.288 439 80.727 416.456 48.3525 371.369C16.1175 326.08 0 275.054 0 218.292C0 159.92 15.6291 108.995 46.8872 65.5179C78.2849 21.8393 112.892 0 150.709 0Z" fill="black"/>
</svg>
