<svg width="329" height="219" viewBox="0 0 329 219" fill="none" xmlns="http://www.w3.org/2000/svg">
<path d="M174.008 90.7111C174.008 92.6252 174.372 94.0249 175.101 94.9103C175.844 95.7957 177.386 96.2384 179.73 96.2384H183.07V97.0002H159.203V96.2384H162.543C164.886 96.2384 166.423 95.7957 167.152 94.9103C167.894 94.0249 168.265 92.6252 168.265 90.7111V70.4572H166.996C163.545 70.4572 160.87 71.8244 158.969 74.5587C157.08 77.2931 156.026 80.3074 155.804 83.6017H155.082V69.7345H187.191V83.6017H186.469C186.247 80.3074 185.186 77.2931 183.285 74.5587C181.397 71.8244 178.728 70.4572 175.277 70.4572H174.008V90.7111Z" fill="black"/>
<path d="M186.61 83.7762C186.363 83.7762 186.24 83.6528 186.24 83.4062C186.24 83.2088 186.536 82.3702 187.128 80.8902C187.769 79.3608 188.855 77.5355 190.384 75.4142C191.371 74.0328 192.53 72.7255 193.862 71.4921C195.243 70.2095 196.723 69.0995 198.302 68.1622C199.93 67.2248 201.657 66.4848 203.482 65.9422C205.307 65.3995 207.182 65.1282 209.106 65.1282C210.783 65.1282 212.411 65.3995 213.99 65.9422C215.618 66.4848 217.073 67.2742 218.356 68.3102C219.984 67.9155 221.587 67.6195 223.166 67.4221C224.745 67.1755 226.323 67.0522 227.902 67.0522C233.131 67.0522 238.114 68.0141 242.85 69.9381C243.689 69.4941 244.552 69.0255 245.44 68.5322C246.377 68.0388 247.241 67.7921 248.03 67.7921C248.227 67.7921 248.326 67.8908 248.326 68.0882C248.326 68.1868 248.227 68.2855 248.03 68.3842C247.833 68.4335 247.537 68.5322 247.142 68.6802C246.797 68.7788 246.353 68.9761 245.81 69.2721C245.267 69.5188 244.626 69.8888 243.886 70.3822C245.909 71.4182 247.537 72.7748 248.77 74.4521C250.003 76.1295 250.62 78.0782 250.62 80.2982C250.62 81.8768 250.25 83.3075 249.51 84.5901C248.77 85.8728 247.808 87.0075 246.624 87.9942C245.44 88.9808 244.133 89.7948 242.702 90.4361C241.271 91.0775 239.865 91.5708 238.484 91.9162V92.0641C239.865 92.3601 241.148 92.8535 242.332 93.5442C243.565 94.1855 244.626 94.9748 245.514 95.9122C246.451 96.8495 247.191 97.9348 247.734 99.1682C248.277 100.401 248.548 101.758 248.548 103.238C248.548 105.458 247.981 107.555 246.846 109.528C245.711 111.452 244.256 113.154 242.48 114.634C240.753 116.114 238.805 117.298 236.634 118.186C234.463 119.025 232.342 119.444 230.27 119.444C229.135 119.444 228.05 119.271 227.014 118.926C226.027 118.581 225.139 118.112 224.35 117.52C223.561 116.879 222.919 116.114 222.426 115.226C221.982 114.338 221.76 113.327 221.76 112.192C221.76 110.465 222.179 108.911 223.018 107.53C223.906 106.099 224.794 104.94 225.682 104.052C226.027 103.707 226.422 103.337 226.866 102.942C227.31 102.547 227.729 102.202 228.124 101.906C228.519 101.561 228.864 101.289 229.16 101.092C229.456 100.895 229.629 100.796 229.678 100.796C229.925 100.796 230.048 100.944 230.048 101.24C230.048 101.388 229.727 101.684 229.086 102.128C228.494 102.523 227.631 103.263 226.496 104.348C225.361 105.433 224.424 106.667 223.684 108.048C222.993 109.429 222.648 110.712 222.648 111.896C222.648 113.968 223.314 115.596 224.646 116.78C226.027 117.964 227.729 118.556 229.752 118.556C231.824 118.556 233.699 118.038 235.376 117.002C237.103 115.917 238.583 114.535 239.816 112.858C241.099 111.181 242.085 109.355 242.776 107.382C243.467 105.409 243.812 103.485 243.812 101.61C243.812 99.9328 243.615 98.5268 243.22 97.3922C242.825 96.2575 242.332 95.3448 241.74 94.6542C241.148 93.9142 240.482 93.3962 239.742 93.1002C239.002 92.8042 238.262 92.6562 237.522 92.6562C236.93 92.6562 236.461 92.7055 236.116 92.8042C235.82 92.9028 235.499 93.0015 235.154 93.1002C234.858 93.1988 234.488 93.2975 234.044 93.3961C233.649 93.4948 233.082 93.5442 232.342 93.5442C231.405 93.5442 230.936 93.1988 230.936 92.5081C230.936 92.1135 231.133 91.8175 231.528 91.6202C231.972 91.4228 232.737 91.3242 233.822 91.3242C234.562 91.3242 235.105 91.3488 235.45 91.3981C235.845 91.4475 236.19 91.4722 236.486 91.4722C237.966 91.4722 239.323 91.0528 240.556 90.2141C241.789 89.3755 242.825 88.3395 243.664 87.1062C244.503 85.8235 245.144 84.4422 245.588 82.9622C246.081 81.4822 246.328 80.0762 246.328 78.7442C246.328 76.8695 246.057 75.3402 245.514 74.1562C244.971 72.9721 244.059 71.9855 242.776 71.1962C240.507 72.7255 238.484 74.6248 236.708 76.8941C234.932 79.1141 233.304 81.4822 231.824 83.9982C230.344 86.5142 228.938 89.0548 227.606 91.6202C226.274 94.1855 224.917 96.5781 223.536 98.7981C222.056 101.166 220.329 103.583 218.356 106.05C216.383 108.517 214.212 110.737 211.844 112.71C209.476 114.683 206.911 116.311 204.148 117.594C201.435 118.827 198.549 119.444 195.49 119.444C194.207 119.444 193.023 119.296 191.938 119C190.853 118.655 189.891 118.186 189.052 117.594C188.263 117.002 187.646 116.336 187.202 115.596C186.758 114.807 186.536 113.968 186.536 113.08C186.536 112.241 186.832 111.551 187.424 111.008C188.016 110.416 188.731 110.12 189.57 110.12C191.395 110.12 192.308 111.008 192.308 112.784C192.308 113.277 192.185 113.746 191.938 114.19C191.691 114.585 191.568 114.979 191.568 115.374C191.568 116.213 191.889 116.953 192.53 117.594C193.171 118.235 194.281 118.556 195.86 118.556C197.833 118.556 199.782 118.235 201.706 117.594C203.63 116.953 205.529 115.843 207.404 114.264C209.279 112.685 211.178 110.589 213.102 107.974C215.075 105.31 217.098 101.955 219.17 97.9101C220.798 94.7528 222.401 91.8668 223.98 89.2522C225.608 86.6375 227.31 84.2202 229.086 82.0002C230.911 79.7802 232.86 77.7328 234.932 75.8582C237.004 73.9835 239.273 72.2321 241.74 70.6041C239.569 69.6175 237.275 68.9268 234.858 68.5322C232.441 68.1375 230.023 67.9401 227.606 67.9401C224.843 67.9401 222.007 68.2855 219.096 68.9762C220.231 70.0122 221.045 71.3688 221.538 73.0462C222.081 74.7235 222.352 76.3022 222.352 77.7822C222.352 80.4462 221.735 83.1595 220.502 85.9221C219.318 88.6848 217.715 91.1761 215.692 93.3961C213.669 95.6161 211.326 97.4415 208.662 98.8722C205.998 100.253 203.211 100.944 200.3 100.944C198.08 100.944 196.181 100.278 194.602 98.9462C193.073 97.6142 192.308 95.6408 192.308 93.0262C192.308 90.2142 193.097 87.5008 194.676 84.8862C196.304 82.2222 198.351 79.8048 200.818 77.6342C203.285 75.4142 205.973 73.5395 208.884 72.0101C211.844 70.4315 214.656 69.3215 217.32 68.6802C216.136 67.7428 214.829 67.0768 213.398 66.6822C211.967 66.2382 210.512 66.0162 209.032 66.0162C207.059 66.0162 205.159 66.3121 203.334 66.9041C201.558 67.4468 199.881 68.1868 198.302 69.1241C196.773 70.0121 195.391 71.0235 194.158 72.1581C192.925 73.2928 191.913 74.4522 191.124 75.6362C189.989 77.2642 189.126 78.6208 188.534 79.7061C187.991 80.7421 187.597 81.5808 187.35 82.2222C187.103 82.8142 186.955 83.2335 186.906 83.4801C186.857 83.6775 186.758 83.7762 186.61 83.7762ZM193.492 93.2482C193.492 95.2215 194.035 96.8002 195.12 97.9842C196.255 99.1682 197.957 99.7602 200.226 99.7602C202.643 99.7602 205.036 98.9708 207.404 97.3922C209.772 95.7642 211.893 93.7908 213.768 91.4722C215.692 89.1042 217.221 86.5881 218.356 83.9241C219.54 81.2602 220.132 78.8428 220.132 76.6721C220.132 74.8961 219.935 73.3915 219.54 72.1581C219.195 70.9248 218.701 69.9628 218.06 69.2721C215.593 69.8641 212.929 70.8508 210.068 72.2321C207.207 73.6135 204.543 75.3402 202.076 77.4122C199.609 79.4842 197.562 81.8522 195.934 84.5162C194.306 87.1802 193.492 90.0908 193.492 93.2482Z" fill="black"/>
<path d="M265.469 97C259.363 97 256 94.6027 256 87.952V49.44C256 41.8613 260.779 39 266.531 39C272.726 39 276 41.3973 276 48.048V86.56C276 94.1387 271.221 97 265.469 97ZM265.911 44.2587C263.257 44.2587 262.637 45.96 262.637 48.6667V85.3227C262.637 90.8907 264.407 91.7413 266.531 91.7413C268.832 91.7413 269.363 90.04 269.363 87.3333V50.6773C269.363 45.1093 267.681 44.2587 265.911 44.2587Z" fill="black"/>
<path d="M296.12 64.2779C296.336 64.856 296.643 65.3424 297.042 65.7372C297.971 66.6959 299.931 67.1752 302.92 67.1752V68H281V67.1752C283.989 67.1752 285.949 66.6959 286.879 65.7372C287.825 64.7784 288.298 63.2628 288.298 61.1903V45.287C288.298 43.2145 287.825 41.6989 286.879 40.7402C285.949 39.7815 283.989 39.3021 281 39.3021V38.4773H302.92V39.3021C299.931 39.3021 297.963 39.7815 297.017 40.7402C296.087 41.6989 295.622 43.2145 295.622 45.287V61.1903C295.622 61.9235 295.68 62.5861 295.796 63.1782L314.055 42.6435C313.805 41.8681 313.448 41.2336 312.983 40.7402C312.037 39.7815 310.069 39.3021 307.08 39.3021V38.4773H329V39.3021C326.011 39.3021 324.043 39.7815 323.097 40.7402C322.167 41.6989 321.702 43.2145 321.702 45.287V61.1903C321.702 63.2628 322.167 64.7784 323.097 65.7372C324.043 66.6959 326.011 67.1752 329 67.1752V68H307.08V67.1752C310.069 67.1752 312.029 66.6959 312.958 65.7372C313.905 64.7784 314.378 63.2628 314.378 61.1903V45.287C314.378 44.7513 314.345 44.2508 314.279 43.7855L296.12 64.2779ZM304.988 36.4048C301.019 36.4048 297.955 35.7351 295.796 34.3958C293.637 33.0423 292.483 31.5408 292.334 29.8912C292.334 28.5237 292.749 27.5368 293.579 26.9305C294.426 26.3102 295.464 26 296.693 26C298.304 26.0141 299.416 26.3666 300.031 27.0574C300.645 27.7482 300.969 28.6083 301.002 29.6375C301.002 31.1883 300.006 32.2739 298.013 32.8943C297.282 33.0775 296.917 33.2679 296.917 33.4653C297.083 33.9023 297.739 34.3464 298.885 34.7976C300.047 35.2346 302.081 35.4884 304.988 35.5589C307.894 35.4884 309.92 35.2346 311.065 34.7976C312.228 34.3464 312.892 33.9023 313.058 33.4653C313.058 33.2679 312.693 33.0775 311.962 32.8943C309.969 32.2739 308.973 31.1883 308.973 29.6375C309.006 28.6083 309.33 27.7482 309.944 27.0574C310.559 26.3666 311.671 26.0141 313.282 26C314.511 26 315.541 26.3102 316.371 26.9305C317.218 27.5368 317.641 28.5237 317.641 29.8912C317.492 31.5408 316.338 33.0423 314.179 34.3958C312.02 35.7351 308.956 36.4048 304.988 36.4048Z" fill="black"/>
<path d="M19.6935 67.3557H0.27124V129H6.60457V72.8446H13.3601V129H19.6935V67.3557Z" fill="black"/>
<path d="M17.0698 139.587L21.7836 136.583L35.7149 111.128L33.8481 107.413L33.9181 107H41.8755L47.7094 136.537L50.9998 139.587L50.9064 140H36.485L36.555 139.587L40.7788 136.56L39.4953 129.451H26.8941L23.0203 136.56L27.2441 139.587L27.1741 140H16.9998L17.0698 139.587ZM39.2853 128.327L36.3216 112.183L27.5008 128.327H39.2853Z" fill="black"/>
<path d="M72.1426 116.486C72.1426 126.216 69.8086 130.27 64.6577 130.27C62.6456 130.27 60.875 129.216 59.1044 127.595L58.6215 128.081L60.6336 130.189V140H54.9998V80.8108H60.5531V81.7027L58.702 94.027L59.5068 94.1892C61.1969 82.027 63.9334 80 66.9917 80C69.9696 80 72.1426 82.5135 72.1426 86.5676V116.486ZM66.3478 116.973V89.7297C66.3478 86.8108 65.6235 85.5135 64.2553 85.5135C62.4847 85.5135 60.6336 91.027 60.6336 98.4865V123.459C61.6798 124.514 62.8066 125.081 64.0943 125.081C65.6235 125.081 66.3478 123.946 66.3478 116.973Z" fill="black"/>
<path d="M107.838 125.8C105.771 125.067 103.805 123.8 101.938 122C99.8046 122.533 97.8046 122.8 95.9379 122.8C93.2046 122.8 90.6713 122.467 88.3379 121.8C86.0046 121.133 83.9713 120.2 82.2379 119C80.5046 117.8 79.1379 116.333 78.1379 114.6C77.1379 112.8 76.6379 110.8 76.6379 108.6C76.6379 106.067 77.2379 103.833 78.4379 101.9C79.6379 99.9668 81.1713 98.3335 83.0379 97.0002C84.9046 95.6668 87.0046 94.6668 89.3379 94.0002C91.6713 93.3335 93.9713 93.0002 96.2379 93.0002C99.5713 93.0002 102.771 93.6335 105.838 94.9002C108.905 96.1002 111.705 97.7335 114.238 99.8001C116.771 98.6002 119.405 97.5335 122.138 96.6002C124.871 95.6668 127.705 95.2001 130.638 95.2001C132.438 95.2001 133.838 95.6001 134.838 96.4001C135.905 97.1335 136.438 98.4335 136.438 100.3C136.438 101.833 135.838 103.433 134.638 105.1C133.438 106.7 131.905 108.267 130.038 109.8C128.171 111.333 126.071 112.767 123.738 114.1C121.405 115.433 119.105 116.633 116.838 117.7C114.571 118.7 112.438 119.533 110.438 120.2C108.438 120.8 106.838 121.133 105.638 121.2C105.971 122.333 106.471 123.333 107.138 124.2C107.871 125 108.871 125.4 110.138 125.4C110.471 125.4 110.938 125.333 111.538 125.2C112.205 125.067 112.971 125 113.838 125C114.771 125 115.671 125.167 116.538 125.5C117.405 125.767 117.838 126.1 117.838 126.5C117.838 127.367 117.071 127.8 115.538 127.8C113.805 127.8 112.538 127.6 111.738 127.2C110.938 126.8 110.238 126.6 109.638 126.6C107.638 126.6 105.238 127.233 102.438 128.5C99.7046 129.7 97.0713 131.467 94.5379 133.8C92.0713 136.067 89.9713 138.867 88.2379 142.2C86.5046 145.467 85.6379 149.133 85.6379 153.2C85.6379 156.933 86.3713 159.767 87.8379 161.7C89.3713 163.633 91.7046 164.833 94.8379 165.3C94.7046 164.7 94.6046 164.067 94.5379 163.4C94.4713 162.733 94.4379 162.067 94.4379 161.4C94.4379 157.6 94.9713 154.1 96.0379 150.9C97.1046 147.7 98.5379 144.933 100.338 142.6C102.138 140.267 104.205 138.467 106.538 137.2C108.938 135.867 111.405 135.2 113.938 135.2C116.405 135.2 118.305 136.067 119.638 137.8C120.971 139.533 121.638 141.533 121.638 143.8C121.638 146.733 120.838 149.567 119.238 152.3C117.638 154.967 115.571 157.367 113.038 159.5C110.571 161.567 107.838 163.267 104.838 164.6C101.838 165.867 98.9713 166.533 96.2379 166.6C96.4379 168.733 96.8046 170.733 97.3379 172.6C97.9379 174.467 98.2379 175.567 98.2379 175.9C98.2379 176.1 98.0713 176.2 97.7379 176.2C97.4713 176.2 97.2713 175.9 97.1379 175.3C97.0713 174.7 96.7713 173.567 96.2379 171.9C95.9046 170.967 95.6379 170 95.4379 169C95.3046 168.067 95.1713 167.267 95.0379 166.6C92.7713 166.6 90.6379 166.3 88.6379 165.7C86.7046 165.033 85.0046 164.1 83.5379 162.9C82.0713 161.7 80.9046 160.2 80.0379 158.4C79.2379 156.533 78.8379 154.4 78.8379 152C78.8379 148.4 79.7379 145.133 81.5379 142.2C83.4046 139.2 85.7713 136.6 88.6379 134.4C91.5046 132.133 94.6379 130.3 98.0379 128.9C101.438 127.433 104.705 126.467 107.838 126V125.8ZM135.238 99.6002C135.238 97.4668 133.705 96.4001 130.638 96.4001C129.505 96.4001 128.305 96.6002 127.038 97.0002C125.838 97.3335 124.638 97.7668 123.438 98.3001C122.238 98.8335 121.071 99.4335 119.938 100.1C118.805 100.767 117.771 101.4 116.838 102C117.971 103.267 119.038 104.467 120.038 105.6C121.038 106.667 121.538 107.267 121.538 107.4C121.538 107.8 121.371 108 121.038 108C120.905 108 120.738 107.9 120.538 107.7C120.405 107.5 120.171 107.2 119.838 106.8C119.505 106.4 119.005 105.867 118.338 105.2C117.738 104.467 116.905 103.6 115.838 102.6C112.905 104.733 110.438 107.2 108.438 110C106.438 112.733 105.438 115.8 105.438 119.2C108.438 118.733 111.671 117.867 115.138 116.6C118.605 115.333 121.838 113.8 124.838 112C127.838 110.2 130.305 108.233 132.238 106.1C134.238 103.9 135.238 101.733 135.238 99.6002ZM79.2379 106.4C79.2379 108.733 79.7046 110.733 80.6379 112.4C81.6379 114.067 82.9379 115.467 84.5379 116.6C86.1379 117.667 88.0046 118.467 90.1379 119C92.2713 119.533 94.5379 119.8 96.9379 119.8C97.4713 119.8 98.0379 119.8 98.6379 119.8C99.2379 119.733 99.8379 119.667 100.438 119.6C100.371 119.133 100.305 118.7 100.238 118.3C100.238 117.833 100.238 117.333 100.238 116.8C100.238 114.933 100.605 113.2 101.338 111.6C102.138 109.933 103.171 108.4 104.438 107C105.705 105.6 107.105 104.367 108.638 103.3C110.171 102.167 111.705 101.2 113.238 100.4C110.771 98.4668 108.071 96.9668 105.138 95.9001C102.205 94.7668 99.1713 94.2001 96.0379 94.2001C94.4379 94.2001 92.6379 94.4668 90.6379 95.0002C88.7046 95.4668 86.8713 96.2002 85.1379 97.2001C83.4713 98.2001 82.0713 99.4668 80.9379 101C79.8046 102.533 79.2379 104.333 79.2379 106.4ZM120.438 143.8C120.438 141.733 119.905 140.067 118.838 138.8C117.771 137.467 116.171 136.8 114.038 136.8C112.038 136.8 109.971 137.667 107.838 139.4C105.705 141.067 103.771 143.2 102.038 145.8C100.305 148.4 98.8713 151.233 97.7379 154.3C96.6046 157.367 96.0379 160.267 96.0379 163C96.0379 163.467 96.0379 163.9 96.0379 164.3C96.0379 164.7 96.0713 165.067 96.1379 165.4C98.7379 165.533 101.471 165 104.338 163.8C107.205 162.533 109.838 160.867 112.238 158.8C114.638 156.733 116.605 154.4 118.138 151.8C119.671 149.2 120.438 146.533 120.438 143.8Z" fill="black"/>
<path d="M136.011 141.475V149.362C136.011 151.468 136.449 153.008 137.324 153.982C138.214 154.956 140.066 155.443 142.878 155.443V156.281H122.253V155.443C125.066 155.443 126.91 154.956 127.785 153.982C128.675 153.008 129.121 151.468 129.121 149.362V133.201C129.121 131.095 128.675 129.555 127.785 128.581C126.91 127.607 125.066 127.12 122.253 127.12V126.281H142.878V127.12C140.066 127.12 138.214 127.607 137.324 128.581C136.449 129.555 136.011 131.095 136.011 133.201V140.594H153.66V133.201C153.66 131.095 153.214 129.555 152.324 128.581C151.449 127.607 149.605 127.12 146.792 127.12V126.281H167.417V127.12C164.605 127.12 162.753 127.607 161.863 128.581C160.988 129.555 160.55 131.095 160.55 133.201V149.362C160.55 151.468 160.988 153.008 161.863 153.982C162.753 154.956 164.605 155.443 167.417 155.443V156.281H146.792V155.443C149.605 155.443 151.449 154.956 152.324 153.982C153.214 153.008 153.66 151.468 153.66 149.362V141.475H136.011Z" fill="black"/>
<path d="M173.347 155.978H173.205V140.333H168.227V183H173.916C179.533 183 182.165 180.867 182.165 174.04V165.578C182.165 158.325 179.32 155.978 173.347 155.978ZM177.187 172.262C177.187 176.956 176.12 178.165 173.773 178.165H173.205V160.813H173.916C176.12 160.813 177.187 161.382 177.187 164.867V172.262Z" fill="black"/>
<path d="M95.4568 39.1798V40.0002H81.7029L67.5388 20.6408H65.8982V34.5041L70.5466 39.5353V40.0002H51.2693V39.5353L55.9177 34.5314V6.14859L51.2693 1.11734V0.652496H70.5466V1.11734L65.8982 6.14859V19.1642H68.8513L82.2771 6.5314L83.5349 5.32828C84.7745 4.12515 85.768 3.23192 86.5154 2.64859C87.281 2.04703 88.1469 1.56395 89.113 1.19937C90.0792 0.834788 91.2276 0.652496 92.5583 0.652496H93.2966L92.8865 7.215H92.4216L84.0271 7.05093L74.7849 15.5822L90.5349 35.6252L95.4568 39.1798Z" fill="black"/>
<path d="M113.586 53.0002C113.906 52.4242 114.45 51.4962 115.218 50.2162C116.05 48.9362 116.978 47.4961 118.002 45.8961C119.026 44.2961 120.082 42.6322 121.17 40.9042C122.258 39.1122 123.25 37.4482 124.146 35.9122C125.106 34.3122 125.874 32.9041 126.45 31.6881C127.026 30.4081 127.314 29.4802 127.314 28.9042C127.314 28.0082 126.898 27.5282 126.066 27.4642C125.362 27.4002 124.37 27.8802 123.09 28.9042C121.874 29.8642 120.466 31.1761 118.866 32.8401C117.33 34.4401 115.73 36.2321 114.066 38.2161C112.402 40.2001 110.834 42.1522 109.362 44.0722C107.89 45.9282 106.578 47.6241 105.426 49.1601C104.274 50.6321 103.474 51.7202 103.026 52.4242L96.7861 53.0002C101.458 45.5762 105.074 39.8802 107.634 35.9122C110.194 31.9442 111.474 29.5762 111.474 28.8082C111.474 27.9122 110.994 27.4642 110.034 27.4642C108.69 27.4642 107.218 28.1042 105.618 29.3842C104.082 30.6002 102.514 32.0402 100.914 33.7042C98.6741 36.1362 97.1701 37.8322 96.4021 38.7922C95.6981 39.6882 95.2501 40.1362 95.0581 40.1362C94.8661 40.1362 94.7381 40.0722 94.6741 39.9442C94.6101 39.8162 94.5781 39.6881 94.5781 39.5602C94.5781 39.4321 95.0581 38.8242 96.0181 37.7362C97.0421 36.5842 98.4501 34.9841 100.242 32.9361C102.482 30.4401 104.402 28.7122 106.002 27.7522C107.602 26.7922 108.978 26.3121 110.13 26.3121C112.69 26.3121 113.97 27.5282 113.97 29.9602C113.97 31.0482 113.778 32.1682 113.394 33.3202C113.01 34.4722 112.53 35.6242 111.954 36.7762C111.378 37.8642 110.77 38.9522 110.13 40.0402C109.49 41.1282 108.946 42.0882 108.498 42.9202L108.69 43.1122C109.522 42.2162 110.674 40.8402 112.146 38.9842C113.682 37.1282 115.282 35.2722 116.946 33.4162C118.674 31.4962 120.37 29.8321 122.034 28.4241C123.762 27.0161 125.266 26.3121 126.546 26.3121C127.634 26.3121 128.434 26.6641 128.946 27.3681C129.522 28.0082 129.81 29.0961 129.81 30.6321C129.81 31.7201 129.65 32.8081 129.33 33.8961C129.01 34.9841 128.594 36.0721 128.082 37.1601C127.634 38.1841 127.122 39.1762 126.546 40.1362C126.034 41.0962 125.554 41.9601 125.106 42.7281L125.298 42.9202C126.13 41.9602 127.282 40.5522 128.754 38.6962C130.29 36.8402 131.922 35.0162 133.65 33.2242C135.442 31.3682 137.202 29.7681 138.93 28.4241C140.722 27.0161 142.29 26.3121 143.634 26.3121C144.53 26.3121 145.298 26.6962 145.938 27.4642C146.642 28.2322 146.994 29.4802 146.994 31.2082C146.994 32.7442 146.514 34.3442 145.554 36.0082C144.594 37.6722 143.506 39.3362 142.29 41.0002C141.074 42.6002 139.954 44.1682 138.93 45.7042C137.906 47.1762 137.33 48.5202 137.202 49.7362C137.138 50.2482 137.234 50.7282 137.49 51.1762C137.81 51.6242 138.226 51.8482 138.738 51.8482C139.634 51.8482 140.85 51.3042 142.386 50.2162C143.986 49.0642 145.682 47.5602 147.474 45.7042C149.074 43.9762 150.29 42.6642 151.122 41.7682C151.954 40.8082 152.562 40.1362 152.946 39.7522C153.33 39.3042 153.554 39.0482 153.618 38.9842C153.746 38.8562 153.874 38.7922 154.002 38.7922C154.322 38.7922 154.482 38.9522 154.482 39.2722C154.482 39.4002 154.29 39.6882 153.906 40.1362C153.586 40.5202 153.17 41.0001 152.658 41.5761C152.146 42.1521 151.57 42.7922 150.93 43.4962C150.29 44.2002 149.65 44.8722 149.01 45.5122C146.578 48.0082 144.53 49.8962 142.866 51.1762C141.266 52.3922 139.794 53.0002 138.45 53.0002C136.978 53.0002 135.922 52.4561 135.282 51.3681C134.642 50.2161 134.322 48.7122 134.322 46.8562C134.322 44.8722 134.834 42.9522 135.858 41.0962C136.946 39.2402 138.13 37.5122 139.41 35.9122C140.69 34.3122 141.842 32.8722 142.866 31.5922C143.954 30.3122 144.498 29.2242 144.498 28.3282C144.498 28.1362 144.402 27.9442 144.21 27.7522C144.082 27.5602 143.762 27.4642 143.25 27.4642C142.354 27.4642 141.202 28.0082 139.794 29.0962C138.386 30.1202 136.882 31.4642 135.282 33.1282C133.682 34.7282 132.05 36.5202 130.386 38.5042C128.722 40.4242 127.154 42.3122 125.682 44.1682C124.274 46.0242 123.026 47.7201 121.938 49.2561C120.85 50.7281 120.082 51.7842 119.634 52.4242L113.586 53.0002Z" fill="black"/>
<path d="M169.769 6.60172C175.504 6.60172 180.215 8.30484 183.902 11.7111C187.59 15.1017 189.433 19.0705 189.433 23.6173C189.433 28.3048 187.551 32.3127 183.785 35.6408C180.019 38.9533 175.347 40.6095 169.769 40.6095C164.332 40.6095 159.691 38.9533 155.847 35.6408C152.004 32.3127 150.082 28.3048 150.082 23.6173C150.082 18.9142 151.965 14.9064 155.73 11.5939C159.496 8.26578 164.176 6.60172 169.769 6.60172ZM169.84 7.56265C166.402 7.56265 163.66 9.05484 161.613 12.0392C159.566 15.008 158.543 18.8673 158.543 23.6173C158.543 28.3517 159.605 32.2111 161.73 35.1955C163.855 38.1642 166.558 39.6486 169.84 39.6486C173.261 39.6486 175.996 38.1642 178.043 35.1955C180.09 32.2111 181.113 28.3517 181.113 23.6173C181.113 18.8673 180.051 15.008 177.926 12.0392C175.801 9.05484 173.105 7.56265 169.84 7.56265Z" fill="black"/>
<path d="M254 162.094C254 168.6 250.1 174.303 242.299 179.204C239.448 180.978 232.57 183.978 221.666 188.202C210.427 192.512 204.807 196.99 204.807 201.637C204.807 203.749 205.897 204.805 208.078 204.805C211.769 204.805 215.249 202.397 218.521 197.581C218.688 197.328 218.856 197.201 219.024 197.201C219.192 197.285 219.275 197.412 219.275 197.581C219.275 198.257 218.101 199.693 215.753 201.89C212.985 204.425 210.427 205.692 208.078 205.692C205.31 205.692 203.926 204.383 203.926 201.764C203.926 199.567 205.226 197.285 207.826 194.92C209.085 193.821 210.259 192.934 211.349 192.258C212.859 191.244 216.34 189.216 221.792 186.175C239.07 176.458 247.709 166.953 247.709 157.658C247.709 150.899 243.683 147.055 235.631 146.125C235.967 147.731 236.134 149.294 236.134 150.815C236.134 158.081 233.241 165.052 227.453 171.726C221.666 178.317 215.585 181.612 209.21 181.612C206.526 181.612 204.262 180.725 202.416 178.951C200.655 177.176 199.774 174.979 199.774 172.36C199.774 165.601 203.381 159.433 210.594 153.856C217.892 148.28 225.86 145.492 234.499 145.492C232.402 140.422 228.921 137.887 224.056 137.887C222.379 137.887 220.785 138.183 219.275 138.774C218.94 138.943 218.73 139.028 218.646 139.028C218.395 138.943 218.269 138.817 218.269 138.648C218.269 138.31 218.94 137.972 220.282 137.634C221.708 137.211 222.966 137 224.056 137C229.341 137 233.115 139.831 235.38 145.492C240.832 145.829 245.277 147.562 248.716 150.688C252.239 153.814 254 157.616 254 162.094ZM206.317 211.142C206.317 213.001 205.478 214.775 203.8 216.465C202.123 218.155 200.403 219 198.642 219C196.881 219 196 218.071 196 216.212C196 214.522 196.881 212.832 198.642 211.142C200.403 209.452 202.165 208.607 203.926 208.607C205.52 208.607 206.317 209.452 206.317 211.142ZM235.38 150.815C235.38 149.294 235.17 147.731 234.751 146.125C226.531 146.125 218.814 149.547 211.601 156.391C204.975 162.643 201.662 168.516 201.662 174.008C201.662 178.486 204.136 180.725 209.085 180.725C214.956 180.725 220.785 177.387 226.573 170.713C232.444 164.038 235.38 157.405 235.38 150.815Z" fill="black"/>
</svg>
