<svg width="321" height="167" viewBox="0 0 321 167" fill="none" xmlns="http://www.w3.org/2000/svg">
<path d="M32.4688 59.9297H50.2422C63.6224 60.2578 73.4661 62.4089 79.7734 66.3828C86.0807 70.3568 89.2344 75.4245 89.2344 81.5859C89.2344 87.9661 86.0078 92.7969 79.5547 96.0781C73.138 99.3594 66.0286 101 58.2266 101H0.203125V98.8672C6.76562 98.8672 11.0677 97.6276 13.1094 95.1484C15.1875 92.6693 16.2266 88.75 16.2266 83.3906V42.2656C16.2266 36.9062 15.1875 32.987 13.1094 30.5078C11.0677 28.0286 6.76562 26.7891 0.203125 26.7891V24.6562H81.7422V54.3516H79.8828C76.6745 42.7943 72.5547 35.3021 67.5234 31.875C62.5286 28.4115 54.0703 26.6797 42.1484 26.6797H32.4688V59.9297ZM32.4688 98.9219H48.7109C55.3828 98.9219 60.6693 97.3177 64.5703 94.1094C68.4714 90.901 70.4219 86.2344 70.4219 80.1094C70.4219 74.4219 68.2891 70.0104 64.0234 66.875C59.7943 63.7396 53.5599 62.1719 45.3203 62.1719H32.4688V98.9219Z" fill="black"/>
<path d="M109.933 76.1555H98.7334V167H108.067V140.867H108.316C118.396 140.867 126.858 136.262 126.858 124.067V91.8356C126.858 80.5111 120.636 76.1555 109.933 76.1555ZM117.525 125.311C117.525 129.667 116.031 132.404 109.933 132.404H108.067V84.6178H109.062C115.285 84.6178 117.525 86.8578 117.525 94.9467V125.311Z" fill="black"/>
<path d="M218.568 10.424C218.568 11 218.376 12.392 217.992 14.6C217.704 16.808 217.08 19.4 216.12 22.376C215.16 25.256 213.864 28.328 212.232 31.592C210.6 34.856 208.44 37.88 205.752 40.664C203.064 43.352 199.848 45.608 196.104 47.432C192.36 49.16 187.896 50.024 182.712 50.024C178.008 50.024 174.312 48.824 171.624 46.424C168.936 44.024 167.592 41.144 167.592 37.784C167.592 34.616 168.312 31.496 169.752 28.424C171.288 25.352 173.304 22.424 175.8 19.64C178.296 16.856 181.128 14.312 184.296 12.008C187.56 9.60801 190.968 7.592 194.52 5.96C198.072 4.232 201.624 2.888 205.176 1.92801C208.824 0.968006 212.232 0.488007 215.4 0.488007C221.544 0.488007 226.44 2.02401 230.088 5.09601C233.736 8.072 235.56 13.448 235.56 21.224C235.56 24.296 234.936 27.368 233.688 30.44C232.44 33.512 230.904 36.584 229.08 39.656C227.256 42.728 225.24 45.752 223.032 48.728C220.824 51.608 218.808 54.44 216.984 57.224C215.16 59.912 213.624 62.456 212.376 64.856C211.128 67.256 210.504 69.464 210.504 71.48C210.504 72.92 210.936 73.928 211.8 74.504C212.664 75.08 213.768 75.368 215.112 75.368C216.648 75.368 218.856 74.648 221.736 73.208C224.712 71.768 227.928 69.8 231.384 67.304C234.936 64.808 238.488 61.88 242.04 58.52C245.688 55.064 248.904 51.32 251.688 47.288C258.888 37.016 265.416 28.808 271.272 22.664C277.224 16.424 282.36 11.672 286.68 8.408C291 5.144 294.456 3.032 297.048 2.072C299.736 1.016 301.464 0.488007 302.232 0.488007C302.904 0.488007 303.24 0.776007 303.24 1.35201C303.24 1.832 302.76 2.264 301.8 2.648C300.84 2.936 299.544 3.416 297.912 4.088C296.28 4.76 294.36 5.76801 292.152 7.11201C289.944 8.36 287.544 10.136 284.952 12.44C282.456 14.744 279.864 17.72 277.176 21.368C274.488 24.92 271.8 29.336 269.112 34.616C267.864 37.112 266.328 40.184 264.504 43.832C262.68 47.384 260.712 51.176 258.6 55.208C256.488 59.24 254.232 63.368 251.832 67.592C249.528 71.816 247.176 75.848 244.776 79.688C242.472 83.528 240.216 87.032 238.008 90.2C235.8 93.368 233.736 95.912 231.816 97.832C224.04 105.608 215.016 111.56 204.744 115.688C194.568 119.912 183.96 122.024 172.92 122.024C168.408 122.024 163.896 121.4 159.384 120.152C154.872 119 150.792 117.176 147.144 114.68C143.496 112.184 140.52 109.064 138.216 105.32C135.912 101.576 134.76 97.16 134.76 92.072C134.76 87.368 135.96 83.048 138.36 79.112C140.856 75.08 143.976 71.624 147.72 68.744C151.56 65.864 155.736 63.608 160.248 61.976C164.76 60.344 169.128 59.528 173.352 59.528C177.576 59.528 181.416 60.104 184.872 61.256C188.424 62.408 191.4 63.992 193.8 66.008C196.296 68.024 198.216 70.328 199.56 72.92C200.904 75.512 201.576 78.248 201.576 81.128C201.576 85.064 200.664 88.568 198.84 91.64C197.016 94.712 194.664 97.304 191.784 99.416C188.904 101.432 185.64 102.968 181.992 104.024C178.44 105.08 174.888 105.608 171.336 105.608C170.088 105.608 168.792 105.512 167.448 105.32C166.104 105.128 164.856 104.888 163.704 104.6C162.552 104.312 161.592 104.024 160.824 103.736C160.152 103.448 159.816 103.16 159.816 102.872C159.816 102.392 160.056 102.152 160.536 102.152C160.824 102.152 161.16 102.248 161.544 102.44C162.024 102.632 162.696 102.824 163.56 103.016C164.52 103.208 165.72 103.4 167.16 103.592C168.696 103.784 170.616 103.88 172.92 103.88C175.896 103.88 178.968 103.352 182.136 102.296C185.304 101.24 188.136 99.8 190.632 97.976C193.128 96.056 195.192 93.752 196.824 91.064C198.456 88.376 199.272 85.352 199.272 81.992C199.272 78.728 198.6 75.992 197.256 73.784C196.008 71.48 194.28 69.656 192.072 68.312C189.96 66.968 187.512 66.008 184.728 65.432C182.04 64.76 179.304 64.424 176.52 64.424C172.008 64.424 167.448 65.192 162.84 66.728C158.328 68.264 154.248 70.424 150.6 73.208C147.048 75.992 144.12 79.4 141.816 83.432C139.608 87.464 138.504 91.928 138.504 96.824C138.504 101.144 139.656 104.792 141.96 107.768C144.36 110.744 147.288 113.144 150.744 114.968C154.296 116.888 158.04 118.232 161.976 119C165.912 119.864 169.464 120.296 172.632 120.296C180.312 120.296 187.176 119.336 193.224 117.416C199.272 115.592 204.696 113 209.496 109.64C214.392 106.376 218.76 102.536 222.6 98.12C226.536 93.608 230.136 88.712 233.4 83.432C236.76 78.152 239.928 72.632 242.904 66.872C245.88 61.112 248.904 55.304 251.976 49.448C250.44 51.656 248.136 54.344 245.064 57.512C241.992 60.584 238.632 63.608 234.984 66.584C231.432 69.464 227.832 71.96 224.184 74.072C220.632 76.088 217.512 77.096 214.824 77.096C211.752 77.096 209.64 76.232 208.488 74.504C207.336 72.68 206.76 70.328 206.76 67.448C206.76 63.992 207.384 60.584 208.632 57.224C209.88 53.864 211.416 50.648 213.24 47.576C215.064 44.408 217.08 41.384 219.288 38.504C221.496 35.528 223.512 32.648 225.336 29.864C227.16 26.984 228.696 24.248 229.944 21.656C231.192 19.064 231.816 16.52 231.816 14.024C231.816 11.912 231.336 10.088 230.376 8.55201C229.416 7.016 228.168 5.816 226.632 4.952C225.192 3.992 223.512 3.32 221.592 2.936C219.672 2.456 217.8 2.216 215.976 2.216C211.848 2.216 207.096 3.128 201.72 4.952C196.344 6.776 191.256 9.27201 186.456 12.44C181.656 15.608 177.576 19.352 174.216 23.672C170.952 27.992 169.32 32.6 169.32 37.496C169.32 40.568 170.472 43.064 172.776 44.984C175.08 46.808 177.72 47.72 180.696 47.72C184.728 47.72 189.048 46.424 193.656 43.832C198.264 41.144 202.68 37.304 206.904 32.312C209.304 29.528 211.128 26.744 212.376 23.96C213.624 21.176 214.536 18.728 215.112 16.616C215.784 14.408 216.216 12.632 216.408 11.288C216.696 9.944 217.08 9.272 217.56 9.272C218.232 9.272 218.568 9.65601 218.568 10.424Z" fill="black"/>
<path d="M236.32 136.286L244.005 130.029L252.319 82.8721L246.944 77.3291L247.07 76.5732H263.489L276.549 119.489L304.852 76.5732H320.515L320.431 77.3291L313.208 82.8721L304.768 130.701L309.975 136.286L309.849 137H285.787L285.913 136.286L293.094 130.701L300.946 86.1475L270.754 131.751H267.856L253.831 86.3994L246.146 130.029L251.647 136.286L251.479 137H236.194L236.32 136.286Z" fill="black"/>
</svg>
